<svg width="1366" height="1451" viewBox="0 0 1366 1451" fill="none" xmlns="http://www.w3.org/2000/svg">
<g filter="url(#filter0_dddd_101_328)">
<path d="M497.27 659.561H520.667V661.425H499.415V675.451H519.399V677.315H499.415V692.714H520.91V694.578H497.27V659.561ZM522.762 659.561H525.249L536.264 674.96L547.524 659.561L562.839 640L537.678 676.579L550.644 694.578H548.06L536.264 678.198L524.42 694.578H521.885L534.948 676.579L522.763 659.561H522.762ZM551.57 661.425V659.561H578.232V661.425H565.949V694.577H563.804V661.425H551.571H551.57ZM468 659.561H470.681L507.648 715L492.371 694.578L470.242 662.209L470.144 694.578H468V659.561ZM578.017 692.152C577.577 692.152 577.249 691.812 577.249 691.372C577.249 690.932 577.577 690.592 578.016 690.592C578.459 690.592 578.783 690.932 578.783 691.372C578.783 691.812 578.459 692.152 578.016 692.152H578.017ZM580.123 690.1H581.272C581.288 690.723 581.742 691.141 582.409 691.141C583.155 691.141 583.577 690.692 583.577 689.849V684.51H584.746V689.854C584.746 691.372 583.87 692.247 582.419 692.247C581.058 692.247 580.124 691.398 580.124 690.1H580.123ZM586.274 690.032H587.432C587.531 690.749 588.23 691.204 589.237 691.204C590.175 691.204 590.864 690.717 590.864 690.048C590.864 689.472 590.426 689.126 589.429 688.891L588.459 688.656C587.098 688.337 586.477 687.677 586.477 686.567C586.477 685.221 587.572 684.326 589.215 684.326C590.744 684.326 591.861 685.221 591.928 686.493H590.791C590.682 685.797 590.077 685.362 589.2 685.362C588.276 685.362 587.661 685.808 587.661 686.488C587.661 687.027 588.058 687.336 589.039 687.566L589.868 687.77C591.411 688.132 592.048 688.76 592.048 689.896C592.048 691.34 590.931 692.247 589.148 692.247C587.479 692.247 586.357 691.382 586.274 690.032V690.032Z" fill="white"/>
</g>
<g filter="url(#filter1_dddd_101_328)">
<path d="M1148.27 274.561H1171.67V276.425H1150.41V290.451H1170.4V292.315H1150.41V307.714H1171.91V309.578H1148.27V274.561ZM1173.76 274.561H1176.25L1187.26 289.96L1198.52 274.561L1213.84 255L1188.68 291.579L1201.64 309.578H1199.06L1187.26 293.198L1175.42 309.578H1172.89L1185.95 291.579L1173.76 274.561H1173.76ZM1202.57 276.425V274.561H1229.23V276.425H1216.95V309.577H1214.8V276.425H1202.57H1202.57ZM1119 274.561H1121.68L1158.65 330L1143.37 309.578L1121.24 277.209L1121.14 309.578H1119V274.561ZM1229.02 307.152C1228.58 307.152 1228.25 306.812 1228.25 306.372C1228.25 305.932 1228.58 305.592 1229.02 305.592C1229.46 305.592 1229.78 305.932 1229.78 306.372C1229.78 306.812 1229.46 307.152 1229.02 307.152H1229.02ZM1231.12 305.1H1232.27C1232.29 305.723 1232.74 306.141 1233.41 306.141C1234.15 306.141 1234.58 305.692 1234.58 304.849V299.51H1235.75V304.854C1235.75 306.372 1234.87 307.247 1233.42 307.247C1232.06 307.247 1231.12 306.398 1231.12 305.1H1231.12ZM1237.27 305.032H1238.43C1238.53 305.749 1239.23 306.204 1240.24 306.204C1241.18 306.204 1241.86 305.717 1241.86 305.048C1241.86 304.472 1241.43 304.126 1240.43 303.891L1239.46 303.656C1238.1 303.337 1237.48 302.677 1237.48 301.567C1237.48 300.221 1238.57 299.326 1240.21 299.326C1241.74 299.326 1242.86 300.221 1242.93 301.493H1241.79C1241.68 300.797 1241.08 300.362 1240.2 300.362C1239.28 300.362 1238.66 300.808 1238.66 301.488C1238.66 302.027 1239.06 302.336 1240.04 302.566L1240.87 302.77C1242.41 303.132 1243.05 303.76 1243.05 304.896C1243.05 306.34 1241.93 307.247 1240.15 307.247C1238.48 307.247 1237.36 306.382 1237.27 305.032V305.032Z" fill="white"/>
</g>
<g filter="url(#filter2_dddd_101_328)">
<path fill-rule="evenodd" clip-rule="evenodd" d="M1106.1 744.245C1114.01 746.665 1119.16 750.568 1119.16 754.686C1119.16 758.791 1114.03 762.694 1106.18 765.114C1108.01 773.147 1107.21 779.546 1103.65 781.598C1102.82 782.08 1101.85 782.308 1100.79 782.308C1097.31 782.308 1092.74 779.85 1088.13 775.567C1083.52 779.875 1078.96 782.359 1075.47 782.359C1074.41 782.359 1073.45 782.131 1072.62 781.649C1069.05 779.596 1068.24 773.185 1070.06 765.126C1062.16 762.706 1057 758.804 1057 754.686C1057 750.58 1062.13 746.69 1070.01 744.258C1068.18 736.224 1068.97 729.826 1072.53 727.773C1073.37 727.291 1074.33 727.063 1075.4 727.063V727.051C1078.88 727.051 1083.44 729.509 1088.06 733.792C1092.67 729.483 1097.23 727 1100.71 727V727.013C1101.76 727.015 1102.72 727.243 1103.54 727.722C1107.11 729.775 1107.92 736.186 1106.1 744.245ZM1100.7 729.826C1098.07 729.832 1094.19 731.935 1090.07 735.768C1091.86 737.631 1093.63 739.759 1095.34 742.104C1098.19 742.408 1100.9 742.877 1103.39 743.485C1103.67 742.205 1103.89 740.951 1104.03 739.759C1104.62 734.919 1103.87 731.156 1102.15 730.168C1101.75 729.952 1101.28 729.838 1100.7 729.838V729.826ZM1086.04 735.781C1081.91 731.967 1078.02 729.876 1075.4 729.876V729.889C1074.82 729.889 1074.32 729.99 1073.94 730.218C1072.23 731.219 1071.5 734.983 1072.09 739.823C1072.24 741.001 1072.46 742.23 1072.75 743.497C1075.23 742.877 1077.94 742.408 1080.81 742.104C1082.49 739.759 1084.27 737.643 1086.04 735.781ZM1100.95 751.239C1101.61 749.554 1102.2 747.869 1102.67 746.234C1101.01 745.829 1099.27 745.499 1097.47 745.233C1098.09 746.196 1098.71 747.185 1099.3 748.198C1099.89 749.212 1100.44 750.226 1100.95 751.239ZM1096.86 759.729C1095.87 761.439 1094.86 763.061 1093.81 764.569C1091.92 764.734 1090.01 764.822 1088.08 764.822C1086.17 764.822 1084.25 764.734 1082.38 764.582C1081.33 763.074 1080.3 761.465 1079.31 759.767C1078.35 758.107 1077.48 756.422 1076.68 754.724C1077.46 753.026 1078.35 751.328 1079.3 749.668C1080.29 747.958 1081.3 746.336 1082.35 744.828C1084.24 744.663 1086.16 744.574 1088.08 744.574C1089.99 744.574 1091.91 744.663 1093.78 744.815C1094.84 746.323 1095.86 747.932 1096.85 749.63C1097.81 751.29 1098.69 752.975 1099.49 754.673C1098.69 756.371 1097.81 758.069 1096.86 759.729ZM1102.7 763.124C1102.22 761.477 1101.64 759.779 1100.95 758.081C1100.44 759.095 1099.89 760.121 1099.31 761.135C1098.72 762.161 1098.1 763.162 1097.48 764.138C1099.3 763.872 1101.04 763.53 1102.7 763.124ZM1088.11 771.601C1086.93 770.385 1085.75 769.029 1084.58 767.547C1085.72 767.597 1086.89 767.635 1088.07 767.635C1089.26 767.635 1090.44 767.61 1091.59 767.547C1090.45 769.029 1089.27 770.385 1088.11 771.601ZM1073.48 763.137C1075.14 763.543 1076.88 763.872 1078.68 764.138C1078.06 763.175 1077.45 762.187 1076.86 761.173C1076.26 760.16 1075.71 759.146 1075.2 758.132C1074.54 759.817 1073.95 761.503 1073.48 763.137ZM1088.04 737.77C1089.22 738.987 1090.4 740.342 1091.57 741.825C1090.43 741.774 1089.26 741.736 1088.08 741.736C1086.89 741.736 1085.71 741.761 1084.56 741.825C1085.7 740.342 1086.88 738.987 1088.04 737.77ZM1076.84 748.236C1077.43 747.21 1078.05 746.209 1078.67 745.233C1076.86 745.499 1075.11 745.841 1073.45 746.234C1073.93 747.881 1074.51 749.579 1075.2 751.277C1075.71 750.264 1076.26 749.25 1076.84 748.236ZM1067.2 761.097C1062.71 759.184 1059.81 756.675 1059.81 754.686C1059.81 752.696 1062.71 750.175 1067.2 748.274C1068.29 747.805 1069.48 747.387 1070.71 746.995C1071.43 749.478 1072.38 752.063 1073.56 754.711C1072.4 757.347 1071.46 759.919 1070.75 762.39C1069.49 761.997 1068.3 761.566 1067.2 761.097ZM1072.13 769.612C1071.55 774.452 1072.29 778.215 1074.02 779.204C1074.4 779.419 1074.88 779.533 1075.45 779.546C1078.08 779.546 1081.96 777.442 1086.09 773.603C1084.31 771.741 1082.53 769.612 1080.82 767.268C1077.97 766.964 1075.26 766.495 1072.78 765.887C1072.5 767.166 1072.27 768.421 1072.13 769.612ZM1104.07 769.548C1104.67 774.389 1103.93 778.152 1102.22 779.153C1101.84 779.381 1101.35 779.482 1100.76 779.482C1098.14 779.482 1094.25 777.392 1090.12 773.578C1091.9 771.715 1093.67 769.599 1095.35 767.255C1098.22 766.951 1100.93 766.482 1103.41 765.861C1103.7 767.141 1103.93 768.37 1104.07 769.548ZM1105.44 762.377C1106.67 761.984 1107.86 761.566 1108.95 761.097C1113.44 759.196 1116.34 756.675 1116.35 754.686C1116.35 752.696 1113.45 750.187 1108.96 748.274C1107.85 747.805 1106.66 747.375 1105.4 746.982C1104.69 749.453 1103.76 752.025 1102.59 754.66C1103.77 757.308 1104.72 759.893 1105.44 762.377Z" fill="white"/>
<circle cx="1088.07" cy="754.686" r="5.79055" fill="white"/>
<path d="M1140.16 771.794V739.881H1152.13C1154.58 739.881 1156.64 740.307 1158.3 741.159C1159.97 742.011 1161.24 743.206 1162.09 744.743C1162.95 746.27 1163.38 748.052 1163.38 750.088C1163.38 752.134 1162.94 753.911 1162.07 755.417C1161.21 756.913 1159.94 758.071 1158.25 758.892C1156.57 759.702 1154.5 760.107 1152.05 760.107H1143.53V755.308H1151.27C1152.71 755.308 1153.88 755.11 1154.79 754.716C1155.71 754.311 1156.38 753.724 1156.82 752.955C1157.27 752.176 1157.49 751.22 1157.49 750.088C1157.49 748.955 1157.27 747.989 1156.82 747.189C1156.37 746.379 1155.69 745.766 1154.78 745.351C1153.86 744.925 1152.69 744.712 1151.24 744.712H1145.94V771.794H1140.16ZM1156.65 757.334L1164.55 771.794H1158.1L1150.34 757.334H1156.65Z" fill="white"/>
<path d="M1178.71 772.261C1176.31 772.261 1174.23 771.763 1172.49 770.765C1170.75 769.758 1169.42 768.335 1168.48 766.496C1167.55 764.647 1167.08 762.47 1167.08 759.967C1167.08 757.505 1167.55 755.344 1168.48 753.485C1169.43 751.615 1170.75 750.16 1172.44 749.122C1174.13 748.072 1176.12 747.548 1178.41 747.548C1179.88 747.548 1181.28 747.787 1182.59 748.265C1183.91 748.732 1185.07 749.459 1186.08 750.446C1187.09 751.433 1187.89 752.69 1188.48 754.217C1189.06 755.734 1189.35 757.541 1189.35 759.64V761.369H1169.73V757.567H1183.94C1183.93 756.487 1183.7 755.526 1183.24 754.685C1182.78 753.833 1182.14 753.163 1181.32 752.674C1180.51 752.186 1179.57 751.942 1178.49 751.942C1177.33 751.942 1176.32 752.223 1175.45 752.783C1174.58 753.334 1173.9 754.061 1173.41 754.965C1172.93 755.858 1172.69 756.84 1172.68 757.91V761.229C1172.68 762.621 1172.93 763.816 1173.44 764.813C1173.95 765.8 1174.66 766.558 1175.57 767.088C1176.49 767.607 1177.56 767.867 1178.78 767.867C1179.6 767.867 1180.35 767.753 1181.01 767.524C1181.68 767.285 1182.25 766.937 1182.74 766.48C1183.23 766.023 1183.6 765.457 1183.85 764.782L1189.11 765.374C1188.78 766.766 1188.15 767.981 1187.21 769.02C1186.29 770.049 1185.1 770.849 1183.66 771.42C1182.22 771.981 1180.57 772.261 1178.71 772.261Z" fill="white"/>
<path d="M1201.01 772.277C1199.49 772.277 1198.13 772.007 1196.91 771.467C1195.7 770.916 1194.75 770.106 1194.04 769.036C1193.35 767.966 1193 766.647 1193 765.078C1193 763.727 1193.25 762.611 1193.75 761.728C1194.25 760.845 1194.93 760.138 1195.79 759.609C1196.65 759.079 1197.62 758.679 1198.7 758.409C1199.79 758.128 1200.92 757.926 1202.08 757.801C1203.49 757.656 1204.62 757.526 1205.5 757.411C1206.37 757.287 1207 757.1 1207.4 756.85C1207.8 756.591 1208 756.191 1208 755.651V755.557C1208 754.383 1207.66 753.474 1206.96 752.83C1206.26 752.186 1205.26 751.864 1203.95 751.864C1202.57 751.864 1201.48 752.165 1200.67 752.768C1199.87 753.37 1199.32 754.082 1199.04 754.903L1193.78 754.155C1194.19 752.7 1194.88 751.485 1195.83 750.508C1196.79 749.522 1197.96 748.784 1199.34 748.296C1200.72 747.797 1202.25 747.548 1203.92 747.548C1205.07 747.548 1206.22 747.683 1207.37 747.953C1208.51 748.223 1209.55 748.67 1210.5 749.293C1211.44 749.906 1212.2 750.742 1212.77 751.802C1213.35 752.861 1213.65 754.186 1213.65 755.775V771.794H1208.22V768.506H1208.04C1207.69 769.171 1207.21 769.794 1206.59 770.376C1205.97 770.947 1205.2 771.41 1204.26 771.763C1203.34 772.106 1202.25 772.277 1201.01 772.277ZM1202.47 768.132C1203.6 768.132 1204.59 767.909 1205.42 767.462C1206.25 767.005 1206.89 766.402 1207.33 765.654C1207.79 764.907 1208.02 764.091 1208.02 763.208V760.388C1207.84 760.533 1207.54 760.668 1207.12 760.793C1206.7 760.917 1206.23 761.027 1205.71 761.12C1205.19 761.213 1204.68 761.297 1204.17 761.369C1203.66 761.442 1203.22 761.504 1202.85 761.556C1202.01 761.671 1201.25 761.858 1200.59 762.117C1199.92 762.377 1199.4 762.741 1199.01 763.208C1198.63 763.665 1198.44 764.257 1198.44 764.984C1198.44 766.023 1198.82 766.808 1199.57 767.337C1200.33 767.867 1201.3 768.132 1202.47 768.132Z" fill="white"/>
<path d="M1229.76 772.261C1227.37 772.261 1225.32 771.737 1223.6 770.688C1221.9 769.638 1220.58 768.189 1219.66 766.34C1218.75 764.481 1218.29 762.341 1218.29 759.92C1218.29 757.489 1218.76 755.344 1219.69 753.485C1220.63 751.615 1221.95 750.16 1223.65 749.122C1225.36 748.072 1227.39 747.548 1229.73 747.548C1231.67 747.548 1233.39 747.906 1234.88 748.623C1236.39 749.329 1237.59 750.332 1238.48 751.63C1239.38 752.919 1239.89 754.425 1240.01 756.149H1234.62C1234.4 754.996 1233.88 754.035 1233.06 753.267C1232.25 752.487 1231.16 752.098 1229.8 752.098C1228.65 752.098 1227.64 752.41 1226.77 753.033C1225.89 753.646 1225.21 754.529 1224.72 755.682C1224.25 756.835 1224.01 758.217 1224.01 759.827C1224.01 761.458 1224.25 762.86 1224.72 764.034C1225.2 765.197 1225.87 766.096 1226.73 766.73C1227.61 767.353 1228.63 767.665 1229.8 767.665C1230.63 767.665 1231.38 767.509 1232.03 767.197C1232.7 766.875 1233.25 766.413 1233.7 765.81C1234.15 765.208 1234.45 764.475 1234.62 763.613H1240.01C1239.88 765.306 1239.38 766.808 1238.51 768.116C1237.65 769.415 1236.48 770.433 1234.99 771.171C1233.51 771.898 1231.76 772.261 1229.76 772.261Z" fill="white"/>
<path d="M1256.59 747.859V752.223H1242.83V747.859H1256.59ZM1246.23 742.125H1251.87V764.595C1251.87 765.353 1251.99 765.935 1252.22 766.34C1252.45 766.735 1252.77 767.005 1253.15 767.15C1253.53 767.296 1253.96 767.369 1254.43 767.369C1254.78 767.369 1255.1 767.343 1255.39 767.291C1255.7 767.239 1255.92 767.192 1256.08 767.15L1257.03 771.56C1256.73 771.664 1256.3 771.778 1255.74 771.903C1255.19 772.028 1254.51 772.1 1253.71 772.121C1252.3 772.163 1251.03 771.95 1249.89 771.482C1248.76 771.004 1247.86 770.267 1247.2 769.27C1246.54 768.272 1246.22 767.026 1246.23 765.53V742.125Z" fill="white"/>
</g>
<g filter="url(#filter3_dddd_101_328)">
<path fill-rule="evenodd" clip-rule="evenodd" d="M153.099 529.245C161.006 531.665 166.163 535.568 166.163 539.686C166.163 543.791 161.031 547.694 153.175 550.114C155.013 558.147 154.214 564.546 150.654 566.598C149.818 567.08 148.855 567.308 147.79 567.308C144.306 567.308 139.744 564.85 135.132 560.567C130.52 564.875 125.958 567.359 122.474 567.359C121.41 567.359 120.447 567.131 119.623 566.649C116.05 564.596 115.239 558.185 117.064 550.126C109.157 547.706 104 543.804 104 539.686C104 535.58 109.132 531.69 117.013 529.258C115.176 521.224 115.974 514.826 119.534 512.773C120.371 512.291 121.334 512.063 122.398 512.063V512.051C125.882 512.051 130.444 514.509 135.056 518.792C139.668 514.483 144.23 512 147.714 512V512.013C148.761 512.015 149.72 512.243 150.54 512.722C154.113 514.775 154.924 521.186 153.099 529.245ZM147.702 514.826C145.066 514.832 141.195 516.935 137.071 520.768C138.857 522.631 140.631 524.759 142.342 527.104C145.193 527.408 147.904 527.877 150.388 528.485C150.667 527.205 150.895 525.951 151.034 524.759C151.617 519.919 150.869 516.156 149.146 515.168C148.753 514.952 148.284 514.838 147.702 514.838V514.826ZM133.041 520.781C128.911 516.967 125.021 514.876 122.398 514.876V514.889C121.815 514.889 121.321 514.99 120.941 515.218C119.23 516.219 118.495 519.983 119.091 524.823C119.243 526.001 119.458 527.23 119.75 528.497C122.233 527.877 124.945 527.408 127.808 527.104C129.494 524.759 131.268 522.643 133.041 520.781ZM147.955 536.239C148.614 534.554 149.197 532.869 149.666 531.234C148.006 530.829 146.27 530.499 144.471 530.233C145.091 531.196 145.712 532.185 146.295 533.198C146.891 534.212 147.435 535.226 147.955 536.239ZM143.862 544.729C142.874 546.439 141.86 548.061 140.809 549.569C138.921 549.734 137.007 549.822 135.081 549.822C133.168 549.822 131.255 549.734 129.38 549.582C128.328 548.074 127.302 546.465 126.313 544.767C125.35 543.107 124.476 541.422 123.678 539.724C124.463 538.026 125.35 536.328 126.301 534.668C127.289 532.958 128.303 531.336 129.354 529.828C131.242 529.663 133.156 529.574 135.081 529.574C136.995 529.574 138.908 529.663 140.783 529.815C141.835 531.323 142.861 532.932 143.85 534.63C144.813 536.29 145.687 537.975 146.485 539.673C145.687 541.371 144.813 543.069 143.862 544.729ZM149.704 548.124C149.222 546.477 148.639 544.779 147.955 543.081C147.435 544.095 146.891 545.121 146.308 546.135C145.725 547.161 145.104 548.162 144.483 549.138C146.295 548.872 148.044 548.53 149.704 548.124ZM135.107 556.601C133.928 555.385 132.75 554.029 131.584 552.547C132.725 552.597 133.89 552.635 135.069 552.635C136.26 552.635 137.438 552.61 138.591 552.547C137.451 554.029 136.273 555.385 135.107 556.601ZM120.485 548.137C122.145 548.543 123.88 548.872 125.68 549.138C125.059 548.175 124.451 547.187 123.855 546.173C123.26 545.16 122.715 544.146 122.195 543.132C121.536 544.817 120.954 546.503 120.485 548.137ZM135.043 522.77C136.222 523.987 137.4 525.342 138.566 526.825C137.426 526.774 136.26 526.736 135.081 526.736C133.89 526.736 132.712 526.761 131.559 526.825C132.699 525.342 133.878 523.987 135.043 522.77ZM123.842 533.236C124.425 532.21 125.046 531.209 125.667 530.233C123.855 530.499 122.107 530.841 120.447 531.234C120.928 532.881 121.511 534.579 122.195 536.277C122.715 535.264 123.26 534.25 123.842 533.236ZM114.2 546.097C109.715 544.184 106.813 541.675 106.813 539.686C106.813 537.696 109.715 535.175 114.2 533.274C115.29 532.805 116.481 532.387 117.71 531.995C118.432 534.478 119.382 537.063 120.561 539.711C119.395 542.347 118.457 544.919 117.748 547.39C116.493 546.997 115.302 546.566 114.2 546.097ZM119.129 554.612C118.546 559.452 119.294 563.215 121.017 564.204C121.397 564.419 121.878 564.533 122.449 564.546C125.084 564.546 128.961 562.442 133.092 558.603C131.306 556.741 129.532 554.612 127.821 552.268C124.97 551.964 122.259 551.495 119.775 550.887C119.496 552.166 119.268 553.421 119.129 554.612ZM151.072 554.548C151.668 559.389 150.933 563.152 149.222 564.153C148.842 564.381 148.348 564.482 147.765 564.482C145.142 564.482 141.252 562.392 137.121 558.578C138.895 556.715 140.669 554.599 142.355 552.255C145.218 551.951 147.93 551.482 150.413 550.861C150.705 552.141 150.933 553.37 151.072 554.548ZM152.44 547.377C153.67 546.984 154.861 546.566 155.95 546.097C160.436 544.196 163.337 541.675 163.35 539.686C163.35 537.696 160.448 535.187 155.963 533.274C154.848 532.805 153.657 532.375 152.402 531.982C151.693 534.453 150.755 537.025 149.59 539.66C150.768 542.308 151.718 544.893 152.44 547.377Z" fill="white"/>
<circle cx="135.069" cy="539.686" r="5.79055" fill="white"/>
<path d="M187.163 556.794V524.881H199.13C201.582 524.881 203.639 525.307 205.301 526.159C206.973 527.011 208.235 528.206 209.087 529.743C209.949 531.27 210.381 533.052 210.381 535.088C210.381 537.134 209.944 538.911 209.072 540.417C208.209 541.913 206.937 543.071 205.254 543.892C203.571 544.702 201.504 545.107 199.052 545.107H190.529V540.308H198.273C199.707 540.308 200.881 540.11 201.795 539.716C202.709 539.311 203.384 538.724 203.82 537.955C204.267 537.176 204.49 536.22 204.49 535.088C204.49 533.955 204.267 532.989 203.82 532.189C203.374 531.379 202.693 530.766 201.779 530.351C200.865 529.925 199.686 529.712 198.242 529.712H192.944V556.794H187.163ZM203.649 542.334L211.549 556.794H205.098L197.338 542.334H203.649Z" fill="white"/>
<path d="M225.706 557.261C223.306 557.261 221.234 556.763 219.488 555.765C217.754 554.758 216.419 553.335 215.484 551.496C214.549 549.647 214.081 547.47 214.081 544.967C214.081 542.505 214.549 540.344 215.484 538.485C216.429 536.615 217.748 535.16 219.442 534.122C221.135 533.072 223.124 532.548 225.41 532.548C226.885 532.548 228.277 532.787 229.586 533.265C230.905 533.732 232.068 534.459 233.076 535.446C234.094 536.433 234.894 537.69 235.476 539.217C236.058 540.734 236.348 542.541 236.348 544.64V546.369H216.73V542.567H230.941C230.931 541.487 230.697 540.526 230.24 539.685C229.783 538.833 229.144 538.163 228.324 537.674C227.513 537.186 226.568 536.942 225.488 536.942C224.334 536.942 223.322 537.223 222.449 537.783C221.576 538.334 220.896 539.061 220.408 539.965C219.93 540.858 219.686 541.84 219.675 542.91V546.229C219.675 547.621 219.93 548.816 220.439 549.813C220.948 550.8 221.66 551.558 222.574 552.088C223.488 552.607 224.558 552.867 225.784 552.867C226.604 552.867 227.347 552.753 228.012 552.524C228.677 552.285 229.253 551.937 229.742 551.48C230.23 551.023 230.599 550.457 230.848 549.782L236.115 550.374C235.782 551.766 235.149 552.981 234.214 554.02C233.289 555.049 232.105 555.849 230.661 556.42C229.217 556.981 227.565 557.261 225.706 557.261Z" fill="white"/>
<path d="M248.008 557.277C246.491 557.277 245.125 557.007 243.91 556.467C242.705 555.916 241.749 555.106 241.043 554.036C240.347 552.966 239.999 551.647 239.999 550.078C239.999 548.727 240.248 547.611 240.747 546.728C241.245 545.845 241.926 545.138 242.788 544.609C243.65 544.079 244.621 543.679 245.702 543.409C246.792 543.128 247.92 542.926 249.083 542.801C250.485 542.656 251.623 542.526 252.496 542.411C253.368 542.287 254.002 542.1 254.397 541.85C254.802 541.591 255.004 541.191 255.004 540.651V540.557C255.004 539.383 254.656 538.474 253.96 537.83C253.264 537.186 252.262 536.864 250.953 536.864C249.571 536.864 248.475 537.165 247.665 537.768C246.865 538.37 246.325 539.082 246.044 539.903L240.778 539.155C241.193 537.7 241.879 536.485 242.835 535.508C243.79 534.522 244.959 533.784 246.341 533.296C247.722 532.797 249.249 532.548 250.922 532.548C252.075 532.548 253.223 532.683 254.365 532.953C255.508 533.223 256.552 533.67 257.497 534.293C258.443 534.906 259.201 535.742 259.772 536.802C260.354 537.861 260.645 539.186 260.645 540.775V556.794H255.222V553.506H255.035C254.693 554.171 254.21 554.794 253.586 555.376C252.973 555.947 252.199 556.41 251.265 556.763C250.34 557.106 249.254 557.277 248.008 557.277ZM249.473 553.132C250.605 553.132 251.587 552.909 252.418 552.462C253.249 552.005 253.888 551.402 254.334 550.654C254.791 549.907 255.02 549.091 255.02 548.208V545.388C254.843 545.533 254.542 545.668 254.116 545.793C253.701 545.917 253.233 546.027 252.714 546.12C252.194 546.213 251.68 546.297 251.171 546.369C250.662 546.442 250.221 546.504 249.847 546.556C249.005 546.671 248.252 546.858 247.587 547.117C246.922 547.377 246.398 547.741 246.013 548.208C245.629 548.665 245.437 549.257 245.437 549.984C245.437 551.023 245.816 551.808 246.574 552.337C247.333 552.867 248.299 553.132 249.473 553.132Z" fill="white"/>
<path d="M276.757 557.261C274.368 557.261 272.316 556.737 270.602 555.688C268.899 554.638 267.584 553.189 266.66 551.34C265.746 549.481 265.289 547.341 265.289 544.92C265.289 542.489 265.756 540.344 266.691 538.485C267.626 536.615 268.945 535.16 270.649 534.122C272.363 533.072 274.389 532.548 276.726 532.548C278.669 532.548 280.388 532.906 281.884 533.623C283.39 534.329 284.59 535.332 285.483 536.63C286.377 537.919 286.886 539.425 287.01 541.149H281.619C281.401 539.996 280.881 539.035 280.061 538.267C279.25 537.487 278.165 537.098 276.804 537.098C275.651 537.098 274.638 537.41 273.765 538.033C272.893 538.646 272.212 539.529 271.724 540.682C271.246 541.835 271.007 543.217 271.007 544.827C271.007 546.458 271.246 547.86 271.724 549.034C272.202 550.197 272.872 551.096 273.734 551.73C274.607 552.353 275.63 552.665 276.804 552.665C277.635 552.665 278.378 552.509 279.032 552.197C279.697 551.875 280.253 551.413 280.699 550.81C281.146 550.208 281.453 549.475 281.619 548.613H287.01C286.875 550.306 286.377 551.808 285.514 553.116C284.652 554.415 283.478 555.433 281.993 556.171C280.507 556.898 278.762 557.261 276.757 557.261Z" fill="white"/>
<path d="M303.594 532.859V537.223H289.835V532.859H303.594ZM293.232 527.125H298.872V549.595C298.872 550.353 298.987 550.935 299.215 551.34C299.454 551.735 299.766 552.005 300.15 552.15C300.534 552.296 300.96 552.369 301.428 552.369C301.781 552.369 302.103 552.343 302.394 552.291C302.695 552.239 302.924 552.192 303.08 552.15L304.03 556.56C303.729 556.664 303.298 556.778 302.737 556.903C302.186 557.028 301.511 557.1 300.711 557.121C299.298 557.163 298.026 556.95 296.893 556.482C295.761 556.004 294.862 555.267 294.198 554.27C293.543 553.272 293.221 552.026 293.232 550.53V527.125Z" fill="white"/>
</g>
<g opacity="0.1" filter="url(#filter4_dddd_101_328)">
<path fill-rule="evenodd" clip-rule="evenodd" d="M479.099 1223.24C487.006 1225.67 492.163 1229.57 492.163 1233.69C492.163 1237.79 487.031 1241.69 479.175 1244.11C481.013 1252.15 480.214 1258.55 476.654 1260.6C475.818 1261.08 474.855 1261.31 473.79 1261.31C470.306 1261.31 465.744 1258.85 461.132 1254.57C456.52 1258.88 451.958 1261.36 448.474 1261.36C447.41 1261.36 446.447 1261.13 445.623 1260.65C442.05 1258.6 441.239 1252.19 443.064 1244.13C435.157 1241.71 430 1237.8 430 1233.69C430 1229.58 435.132 1225.69 443.013 1223.26C441.176 1215.22 441.974 1208.83 445.534 1206.77C446.371 1206.29 447.334 1206.06 448.398 1206.06V1206.05C451.882 1206.05 456.444 1208.51 461.056 1212.79C465.668 1208.48 470.23 1206 473.714 1206V1206.01C474.761 1206.01 475.72 1206.24 476.54 1206.72C480.113 1208.77 480.924 1215.19 479.099 1223.24ZM473.702 1208.83C471.066 1208.83 467.195 1210.94 463.071 1214.77C464.857 1216.63 466.631 1218.76 468.342 1221.1C471.193 1221.41 473.904 1221.88 476.388 1222.48C476.667 1221.2 476.895 1219.95 477.034 1218.76C477.617 1213.92 476.869 1210.16 475.146 1209.17C474.753 1208.95 474.284 1208.84 473.702 1208.84V1208.83ZM459.041 1214.78C454.911 1210.97 451.021 1208.88 448.398 1208.88V1208.89C447.815 1208.89 447.321 1208.99 446.941 1209.22C445.23 1210.22 444.495 1213.98 445.091 1218.82C445.243 1220 445.458 1221.23 445.75 1222.5C448.233 1221.88 450.945 1221.41 453.808 1221.1C455.494 1218.76 457.268 1216.64 459.041 1214.78ZM473.955 1230.24C474.614 1228.55 475.197 1226.87 475.666 1225.23C474.006 1224.83 472.27 1224.5 470.471 1224.23C471.091 1225.2 471.712 1226.18 472.295 1227.2C472.891 1228.21 473.435 1229.23 473.955 1230.24ZM469.862 1238.73C468.874 1240.44 467.86 1242.06 466.809 1243.57C464.921 1243.73 463.007 1243.82 461.081 1243.82C459.168 1243.82 457.255 1243.73 455.38 1243.58C454.328 1242.07 453.302 1240.46 452.313 1238.77C451.35 1237.11 450.476 1235.42 449.678 1233.72C450.463 1232.03 451.35 1230.33 452.301 1228.67C453.289 1226.96 454.303 1225.34 455.354 1223.83C457.242 1223.66 459.156 1223.57 461.081 1223.57C462.995 1223.57 464.908 1223.66 466.783 1223.82C467.835 1225.32 468.861 1226.93 469.85 1228.63C470.813 1230.29 471.687 1231.98 472.485 1233.67C471.687 1235.37 470.813 1237.07 469.862 1238.73ZM475.704 1242.12C475.222 1240.48 474.639 1238.78 473.955 1237.08C473.435 1238.1 472.891 1239.12 472.308 1240.14C471.725 1241.16 471.104 1242.16 470.483 1243.14C472.295 1242.87 474.044 1242.53 475.704 1242.12ZM461.107 1250.6C459.928 1249.38 458.75 1248.03 457.584 1246.55C458.725 1246.6 459.89 1246.64 461.069 1246.64C462.26 1246.64 463.438 1246.61 464.591 1246.55C463.451 1248.03 462.273 1249.38 461.107 1250.6ZM446.485 1242.14C448.145 1242.54 449.88 1242.87 451.68 1243.14C451.059 1242.18 450.451 1241.19 449.855 1240.17C449.26 1239.16 448.715 1238.15 448.195 1237.13C447.536 1238.82 446.954 1240.5 446.485 1242.14ZM461.043 1216.77C462.222 1217.99 463.4 1219.34 464.566 1220.82C463.426 1220.77 462.26 1220.74 461.081 1220.74C459.89 1220.74 458.712 1220.76 457.559 1220.82C458.699 1219.34 459.878 1217.99 461.043 1216.77ZM449.842 1227.24C450.425 1226.21 451.046 1225.21 451.667 1224.23C449.855 1224.5 448.107 1224.84 446.447 1225.23C446.928 1226.88 447.511 1228.58 448.195 1230.28C448.715 1229.26 449.26 1228.25 449.842 1227.24ZM440.2 1240.1C435.715 1238.18 432.813 1235.68 432.813 1233.69C432.813 1231.7 435.715 1229.17 440.2 1227.27C441.29 1226.81 442.481 1226.39 443.71 1225.99C444.432 1228.48 445.382 1231.06 446.561 1233.71C445.395 1236.35 444.457 1238.92 443.748 1241.39C442.493 1241 441.302 1240.57 440.2 1240.1ZM445.129 1248.61C444.546 1253.45 445.294 1257.22 447.017 1258.2C447.397 1258.42 447.878 1258.53 448.449 1258.55C451.084 1258.55 454.961 1256.44 459.092 1252.6C457.306 1250.74 455.532 1248.61 453.821 1246.27C450.97 1245.96 448.259 1245.49 445.775 1244.89C445.496 1246.17 445.268 1247.42 445.129 1248.61ZM477.072 1248.55C477.668 1253.39 476.933 1257.15 475.222 1258.15C474.842 1258.38 474.348 1258.48 473.765 1258.48C471.142 1258.48 467.252 1256.39 463.121 1252.58C464.895 1250.72 466.669 1248.6 468.355 1246.26C471.218 1245.95 473.93 1245.48 476.413 1244.86C476.705 1246.14 476.933 1247.37 477.072 1248.55ZM478.44 1241.38C479.67 1240.98 480.861 1240.57 481.95 1240.1C486.436 1238.2 489.337 1235.67 489.35 1233.69C489.35 1231.7 486.448 1229.19 481.963 1227.27C480.848 1226.81 479.657 1226.37 478.402 1225.98C477.693 1228.45 476.755 1231.02 475.59 1233.66C476.768 1236.31 477.718 1238.89 478.44 1241.38Z" fill="white"/>
<circle cx="461.069" cy="1233.69" r="5.79055" fill="white"/>
<path d="M513.163 1250.79V1218.88H525.13C527.582 1218.88 529.639 1219.31 531.301 1220.16C532.973 1221.01 534.235 1222.21 535.087 1223.74C535.949 1225.27 536.381 1227.05 536.381 1229.09C536.381 1231.13 535.944 1232.91 535.072 1234.42C534.209 1235.91 532.937 1237.07 531.254 1237.89C529.571 1238.7 527.504 1239.11 525.052 1239.11H516.529V1234.31H524.273C525.707 1234.31 526.881 1234.11 527.795 1233.72C528.709 1233.31 529.384 1232.72 529.82 1231.95C530.267 1231.18 530.49 1230.22 530.49 1229.09C530.49 1227.96 530.267 1226.99 529.82 1226.19C529.374 1225.38 528.693 1224.77 527.779 1224.35C526.865 1223.92 525.686 1223.71 524.242 1223.71H518.944V1250.79H513.163ZM529.649 1236.33L537.549 1250.79H531.098L523.338 1236.33H529.649Z" fill="white"/>
<path d="M551.706 1251.26C549.306 1251.26 547.234 1250.76 545.488 1249.77C543.754 1248.76 542.419 1247.33 541.484 1245.5C540.549 1243.65 540.081 1241.47 540.081 1238.97C540.081 1236.5 540.549 1234.34 541.484 1232.48C542.429 1230.61 543.748 1229.16 545.442 1228.12C547.135 1227.07 549.124 1226.55 551.41 1226.55C552.885 1226.55 554.277 1226.79 555.586 1227.26C556.905 1227.73 558.068 1228.46 559.076 1229.45C560.094 1230.43 560.894 1231.69 561.476 1233.22C562.058 1234.73 562.348 1236.54 562.348 1238.64V1240.37H542.73V1236.57H556.941C556.931 1235.49 556.697 1234.53 556.24 1233.68C555.783 1232.83 555.144 1232.16 554.324 1231.67C553.513 1231.19 552.568 1230.94 551.488 1230.94C550.334 1230.94 549.322 1231.22 548.449 1231.78C547.576 1232.33 546.896 1233.06 546.408 1233.97C545.93 1234.86 545.686 1235.84 545.675 1236.91V1240.23C545.675 1241.62 545.93 1242.82 546.439 1243.81C546.948 1244.8 547.66 1245.56 548.574 1246.09C549.488 1246.61 550.558 1246.87 551.784 1246.87C552.604 1246.87 553.347 1246.75 554.012 1246.52C554.677 1246.29 555.253 1245.94 555.742 1245.48C556.23 1245.02 556.599 1244.46 556.848 1243.78L562.115 1244.37C561.782 1245.77 561.149 1246.98 560.214 1248.02C559.289 1249.05 558.105 1249.85 556.661 1250.42C555.217 1250.98 553.565 1251.26 551.706 1251.26Z" fill="white"/>
<path d="M574.008 1251.28C572.491 1251.28 571.125 1251.01 569.91 1250.47C568.705 1249.92 567.749 1249.11 567.043 1248.04C566.347 1246.97 565.999 1245.65 565.999 1244.08C565.999 1242.73 566.248 1241.61 566.747 1240.73C567.245 1239.84 567.926 1239.14 568.788 1238.61C569.65 1238.08 570.621 1237.68 571.702 1237.41C572.792 1237.13 573.92 1236.93 575.083 1236.8C576.485 1236.66 577.623 1236.53 578.496 1236.41C579.368 1236.29 580.002 1236.1 580.397 1235.85C580.802 1235.59 581.004 1235.19 581.004 1234.65V1234.56C581.004 1233.38 580.656 1232.47 579.96 1231.83C579.264 1231.19 578.262 1230.86 576.953 1230.86C575.571 1230.86 574.475 1231.17 573.665 1231.77C572.865 1232.37 572.325 1233.08 572.044 1233.9L566.778 1233.15C567.193 1231.7 567.879 1230.48 568.835 1229.51C569.79 1228.52 570.959 1227.78 572.341 1227.3C573.722 1226.8 575.249 1226.55 576.922 1226.55C578.075 1226.55 579.223 1226.68 580.365 1226.95C581.508 1227.22 582.552 1227.67 583.497 1228.29C584.443 1228.91 585.201 1229.74 585.772 1230.8C586.354 1231.86 586.645 1233.19 586.645 1234.78V1250.79H581.222V1247.51H581.035C580.693 1248.17 580.21 1248.79 579.586 1249.38C578.973 1249.95 578.199 1250.41 577.265 1250.76C576.34 1251.11 575.254 1251.28 574.008 1251.28ZM575.473 1247.13C576.605 1247.13 577.587 1246.91 578.418 1246.46C579.249 1246 579.888 1245.4 580.334 1244.65C580.791 1243.91 581.02 1243.09 581.02 1242.21V1239.39C580.843 1239.53 580.542 1239.67 580.116 1239.79C579.701 1239.92 579.233 1240.03 578.714 1240.12C578.194 1240.21 577.68 1240.3 577.171 1240.37C576.662 1240.44 576.221 1240.5 575.847 1240.56C575.005 1240.67 574.252 1240.86 573.587 1241.12C572.922 1241.38 572.398 1241.74 572.013 1242.21C571.629 1242.67 571.437 1243.26 571.437 1243.98C571.437 1245.02 571.816 1245.81 572.574 1246.34C573.333 1246.87 574.299 1247.13 575.473 1247.13Z" fill="white"/>
<path d="M602.757 1251.26C600.368 1251.26 598.316 1250.74 596.602 1249.69C594.899 1248.64 593.584 1247.19 592.66 1245.34C591.746 1243.48 591.289 1241.34 591.289 1238.92C591.289 1236.49 591.756 1234.34 592.691 1232.48C593.626 1230.61 594.945 1229.16 596.649 1228.12C598.363 1227.07 600.389 1226.55 602.726 1226.55C604.669 1226.55 606.388 1226.91 607.884 1227.62C609.39 1228.33 610.59 1229.33 611.483 1230.63C612.377 1231.92 612.886 1233.42 613.01 1235.15H607.619C607.401 1234 606.881 1233.04 606.061 1232.27C605.25 1231.49 604.165 1231.1 602.804 1231.1C601.651 1231.1 600.638 1231.41 599.765 1232.03C598.893 1232.65 598.212 1233.53 597.724 1234.68C597.246 1235.83 597.007 1237.22 597.007 1238.83C597.007 1240.46 597.246 1241.86 597.724 1243.03C598.202 1244.2 598.872 1245.1 599.734 1245.73C600.607 1246.35 601.63 1246.66 602.804 1246.66C603.635 1246.66 604.378 1246.51 605.032 1246.2C605.697 1245.88 606.253 1245.41 606.699 1244.81C607.146 1244.21 607.453 1243.48 607.619 1242.61H613.01C612.875 1244.31 612.377 1245.81 611.514 1247.12C610.652 1248.41 609.478 1249.43 607.993 1250.17C606.507 1250.9 604.762 1251.26 602.757 1251.26Z" fill="white"/>
<path d="M629.594 1226.86V1231.22H615.835V1226.86H629.594ZM619.232 1221.13H624.872V1243.59C624.872 1244.35 624.987 1244.93 625.215 1245.34C625.454 1245.73 625.766 1246 626.15 1246.15C626.534 1246.3 626.96 1246.37 627.428 1246.37C627.781 1246.37 628.103 1246.34 628.394 1246.29C628.695 1246.24 628.924 1246.19 629.08 1246.15L630.03 1250.56C629.729 1250.66 629.298 1250.78 628.737 1250.9C628.186 1251.03 627.511 1251.1 626.711 1251.12C625.298 1251.16 624.026 1250.95 622.893 1250.48C621.761 1250 620.862 1249.27 620.198 1248.27C619.543 1247.27 619.221 1246.03 619.232 1244.53V1221.13Z" fill="white"/>
</g>
<g opacity="0.4" filter="url(#filter5_dddd_101_328)">
<path d="M110.951 927.359C114.536 925.201 118.809 924.489 122.902 925.366C126.994 926.244 130.599 928.647 132.982 932.085C134.171 933.75 135.015 935.635 135.464 937.63C135.914 939.626 135.961 941.69 135.601 943.704C135.244 945.622 134.512 947.452 133.446 949.087C135.009 952.072 135.536 955.491 134.942 958.807C134.583 960.773 133.818 962.642 132.697 964.297C131.577 965.953 130.124 967.357 128.432 968.422L115.89 976.377C112.304 978.536 108.031 979.248 103.938 978.37C99.8457 977.493 96.2415 975.09 93.8585 971.652C92.6697 969.993 91.8255 968.113 91.3757 966.122C90.9258 964.132 90.8795 962.072 91.2394 960.063C91.5841 958.143 92.3119 956.313 93.3796 954.68C91.816 951.695 91.2895 948.276 91.8829 944.96C92.2374 942.994 92.9981 941.124 94.1165 939.468C95.2349 937.813 96.6864 936.408 98.3785 935.345L110.951 927.359ZM103.752 972.116C105.67 972.822 107.759 972.926 109.738 972.415C110.64 972.175 111.498 971.797 112.283 971.293L124.84 963.308C125.858 962.664 126.73 961.816 127.403 960.817C128.075 959.818 128.533 958.691 128.746 957.506C128.971 956.303 128.954 955.068 128.697 953.872C128.44 952.676 127.948 951.542 127.249 950.538C126.085 948.864 124.435 947.586 122.521 946.878C120.608 946.169 118.523 946.063 116.548 946.575C115.648 946.818 114.79 947.196 114.004 947.696L109.184 950.687C108.947 950.837 108.69 950.953 108.421 951.031C107.829 951.182 107.205 951.149 106.632 950.935C106.059 950.721 105.566 950.337 105.218 949.835C105.002 949.533 104.848 949.191 104.765 948.829C104.683 948.467 104.674 948.092 104.739 947.726C104.806 947.369 104.945 947.03 105.148 946.729C105.352 946.428 105.615 946.172 105.922 945.977L118.464 938.006C118.706 937.861 118.968 937.75 119.242 937.677C119.83 937.522 120.451 937.548 121.023 937.754C121.595 937.96 122.091 938.335 122.445 938.829C122.805 939.387 122.954 940.055 122.864 940.713V941.192L123.343 941.326C125.086 941.841 126.73 942.645 128.207 943.704L128.851 944.182L129.09 943.465C129.215 943.082 129.315 942.693 129.39 942.298C129.605 941.09 129.575 939.85 129.303 938.653C129.03 937.456 128.52 936.326 127.803 935.33C126.641 933.657 124.994 932.38 123.083 931.672C121.172 930.963 119.09 930.857 117.117 931.367C116.222 931.605 115.369 931.978 114.587 932.474L102.015 940.474C100.996 941.113 100.122 941.958 99.4492 942.954C98.7765 943.951 98.32 945.077 98.1091 946.261C97.8836 947.463 97.8999 948.699 98.1568 949.895C98.4138 951.092 98.9063 952.225 99.6058 953.229C100.768 954.902 102.415 956.179 104.326 956.887C106.237 957.596 108.319 957.702 110.292 957.192C111.19 956.951 112.048 956.578 112.836 956.085L117.641 953.095C117.879 952.938 118.142 952.821 118.419 952.751C119.013 952.596 119.641 952.628 120.217 952.842C120.792 953.056 121.288 953.442 121.637 953.947C121.854 954.246 122.008 954.585 122.09 954.945C122.173 955.305 122.181 955.677 122.116 956.041C122.056 956.4 121.919 956.742 121.715 957.044C121.511 957.346 121.244 957.6 120.933 957.79L108.406 965.775C108.171 965.929 107.914 966.045 107.643 966.119C107.049 966.274 106.421 966.242 105.845 966.028C105.27 965.814 104.774 965.428 104.425 964.923C104.037 964.386 103.852 963.729 103.901 963.069V962.59L103.407 962.456C101.652 961.93 100.002 961.106 98.5282 960.018L97.8696 959.54L97.6451 960.257C97.5174 960.639 97.4173 961.028 97.3458 961.424C97.1276 962.631 97.1543 963.87 97.4242 965.067C97.6942 966.264 98.2019 967.395 98.9173 968.392C100.099 970.109 101.79 971.411 103.752 972.116Z" fill="white"/>
<path d="M162.954 966.637C160.428 966.637 158.242 966.025 156.395 964.801C154.548 963.55 153.272 961.85 152.566 959.701L156.558 958.233C157.156 959.566 158.025 960.626 159.165 961.415C160.306 962.177 161.623 962.557 163.117 962.557C164.692 962.557 165.941 962.177 166.864 961.415C167.815 960.653 168.29 959.566 168.29 958.151C168.29 957.553 168.154 957.009 167.883 956.519C167.638 956.003 167.353 955.581 167.027 955.255C166.701 954.928 166.199 954.602 165.52 954.275C164.841 953.922 164.271 953.663 163.809 953.5C163.375 953.31 162.723 953.065 161.854 952.766C160.767 952.385 159.953 952.086 159.41 951.868C158.866 951.651 158.147 951.297 157.251 950.808C156.382 950.291 155.716 949.788 155.255 949.298C154.82 948.781 154.426 948.115 154.073 947.299C153.72 946.483 153.544 945.572 153.544 944.566C153.544 942.471 154.358 940.703 155.988 939.262C157.617 937.82 159.831 937.1 162.628 937.1C164.963 937.1 166.878 937.616 168.372 938.65C169.892 939.683 170.911 941.057 171.427 942.77L167.516 944.076C167.136 943.206 166.498 942.512 165.601 941.995C164.732 941.451 163.633 941.179 162.302 941.179C160.944 941.179 159.871 941.479 159.084 942.077C158.323 942.675 157.943 943.518 157.943 944.606C157.943 945.341 158.242 945.993 158.839 946.565C159.437 947.136 160.061 947.557 160.713 947.829C161.365 948.101 162.356 948.469 163.687 948.931C164.502 949.23 165.099 949.461 165.479 949.624C165.887 949.76 166.471 950.005 167.231 950.359C167.991 950.712 168.575 951.039 168.983 951.338C169.39 951.61 169.865 951.991 170.408 952.48C170.951 952.97 171.359 953.473 171.63 953.99C171.929 954.479 172.174 955.091 172.364 955.826C172.581 956.533 172.69 957.294 172.69 958.11C172.69 960.776 171.78 962.87 169.96 964.393C168.141 965.889 165.805 966.637 162.954 966.637Z" fill="white"/>
<path d="M189.127 966.148L179.351 937.589H183.913L190.39 957.498C190.798 958.75 191.096 959.837 191.286 960.762C191.477 959.837 191.775 958.75 192.183 957.498L198.578 937.589H203.1L193.364 966.148H189.127Z" fill="white"/>
<path d="M211.711 965.925V937.367H229.391V941.365H215.948V949.198H224.625V953.196H215.948V961.927H230.287V965.925H211.711Z" fill="white"/>
<path d="M241.16 966.148V937.589H245.396V962.068H259.328V966.148H241.16Z" fill="white"/>
<path d="M275.64 941.669V966.148H271.403V941.669H263.337V937.589H283.705V941.669H275.64Z" fill="white"/>
<path d="M292.424 966.148V937.589H310.104V941.587H296.661V949.42H305.338V953.419H296.661V962.149H311V966.148H292.424Z" fill="white"/>
</g>
<g opacity="0.1" filter="url(#filter6_dddd_101_328)">
<path d="M1074.95 1369.36C1078.54 1367.2 1082.81 1366.49 1086.9 1367.37C1090.99 1368.24 1094.6 1370.65 1096.98 1374.08C1098.17 1375.75 1099.01 1377.64 1099.46 1379.63C1099.91 1381.63 1099.96 1383.69 1099.6 1385.7C1099.24 1387.62 1098.51 1389.45 1097.45 1391.09C1099.01 1394.07 1099.54 1397.49 1098.94 1400.81C1098.58 1402.77 1097.82 1404.64 1096.7 1406.3C1095.58 1407.95 1094.12 1409.36 1092.43 1410.42L1079.89 1418.38C1076.3 1420.54 1072.03 1421.25 1067.94 1420.37C1063.85 1419.49 1060.24 1417.09 1057.86 1413.65C1056.67 1411.99 1055.83 1410.11 1055.38 1408.12C1054.93 1406.13 1054.88 1404.07 1055.24 1402.06C1055.58 1400.14 1056.31 1398.31 1057.38 1396.68C1055.82 1393.7 1055.29 1390.28 1055.88 1386.96C1056.24 1384.99 1057 1383.12 1058.12 1381.47C1059.23 1379.81 1060.69 1378.41 1062.38 1377.34L1074.95 1369.36ZM1067.75 1414.12C1069.67 1414.82 1071.76 1414.93 1073.74 1414.41C1074.64 1414.18 1075.5 1413.8 1076.28 1413.29L1088.84 1405.31C1089.86 1404.66 1090.73 1403.82 1091.4 1402.82C1092.08 1401.82 1092.53 1400.69 1092.75 1399.51C1092.97 1398.3 1092.95 1397.07 1092.7 1395.87C1092.44 1394.68 1091.95 1393.54 1091.25 1392.54C1090.08 1390.86 1088.43 1389.59 1086.52 1388.88C1084.61 1388.17 1082.52 1388.06 1080.55 1388.57C1079.65 1388.82 1078.79 1389.2 1078 1389.7L1073.18 1392.69C1072.95 1392.84 1072.69 1392.95 1072.42 1393.03C1071.83 1393.18 1071.2 1393.15 1070.63 1392.93C1070.06 1392.72 1069.57 1392.34 1069.22 1391.83C1069 1391.53 1068.85 1391.19 1068.77 1390.83C1068.68 1390.47 1068.67 1390.09 1068.74 1389.73C1068.81 1389.37 1068.94 1389.03 1069.15 1388.73C1069.35 1388.43 1069.62 1388.17 1069.92 1387.98L1082.46 1380.01C1082.71 1379.86 1082.97 1379.75 1083.24 1379.68C1083.83 1379.52 1084.45 1379.55 1085.02 1379.75C1085.6 1379.96 1086.09 1380.33 1086.45 1380.83C1086.81 1381.39 1086.95 1382.06 1086.86 1382.71V1383.19L1087.34 1383.33C1089.09 1383.84 1090.73 1384.65 1092.21 1385.7L1092.85 1386.18L1093.09 1385.46C1093.21 1385.08 1093.31 1384.69 1093.39 1384.3C1093.6 1383.09 1093.58 1381.85 1093.3 1380.65C1093.03 1379.46 1092.52 1378.33 1091.8 1377.33C1090.64 1375.66 1088.99 1374.38 1087.08 1373.67C1085.17 1372.96 1083.09 1372.86 1081.12 1373.37C1080.22 1373.61 1079.37 1373.98 1078.59 1374.47L1066.02 1382.47C1065 1383.11 1064.12 1383.96 1063.45 1384.95C1062.78 1385.95 1062.32 1387.08 1062.11 1388.26C1061.88 1389.46 1061.9 1390.7 1062.16 1391.9C1062.41 1393.09 1062.91 1394.22 1063.61 1395.23C1064.77 1396.9 1066.42 1398.18 1068.33 1398.89C1070.24 1399.6 1072.32 1399.7 1074.29 1399.19C1075.19 1398.95 1076.05 1398.58 1076.84 1398.09L1081.64 1395.09C1081.88 1394.94 1082.14 1394.82 1082.42 1394.75C1083.01 1394.6 1083.64 1394.63 1084.22 1394.84C1084.79 1395.06 1085.29 1395.44 1085.64 1395.95C1085.85 1396.25 1086.01 1396.59 1086.09 1396.94C1086.17 1397.3 1086.18 1397.68 1086.12 1398.04C1086.06 1398.4 1085.92 1398.74 1085.71 1399.04C1085.51 1399.35 1085.24 1399.6 1084.93 1399.79L1072.41 1407.78C1072.17 1407.93 1071.91 1408.04 1071.64 1408.12C1071.05 1408.27 1070.42 1408.24 1069.85 1408.03C1069.27 1407.81 1068.77 1407.43 1068.43 1406.92C1068.04 1406.39 1067.85 1405.73 1067.9 1405.07V1404.59L1067.41 1404.46C1065.65 1403.93 1064 1403.11 1062.53 1402.02L1061.87 1401.54L1061.65 1402.26C1061.52 1402.64 1061.42 1403.03 1061.35 1403.42C1061.13 1404.63 1061.15 1405.87 1061.42 1407.07C1061.69 1408.26 1062.2 1409.39 1062.92 1410.39C1064.1 1412.11 1065.79 1413.41 1067.75 1414.12Z" fill="white"/>
<path d="M1126.95 1408.64C1124.43 1408.64 1122.24 1408.03 1120.4 1406.8C1118.55 1405.55 1117.27 1403.85 1116.57 1401.7L1120.56 1400.23C1121.16 1401.57 1122.02 1402.63 1123.17 1403.42C1124.31 1404.18 1125.62 1404.56 1127.12 1404.56C1128.69 1404.56 1129.94 1404.18 1130.86 1403.42C1131.81 1402.65 1132.29 1401.57 1132.29 1400.15C1132.29 1399.55 1132.15 1399.01 1131.88 1398.52C1131.64 1398 1131.35 1397.58 1131.03 1397.25C1130.7 1396.93 1130.2 1396.6 1129.52 1396.28C1128.84 1395.92 1128.27 1395.66 1127.81 1395.5C1127.37 1395.31 1126.72 1395.07 1125.85 1394.77C1124.77 1394.39 1123.95 1394.09 1123.41 1393.87C1122.87 1393.65 1122.15 1393.3 1121.25 1392.81C1120.38 1392.29 1119.72 1391.79 1119.25 1391.3C1118.82 1390.78 1118.43 1390.11 1118.07 1389.3C1117.72 1388.48 1117.54 1387.57 1117.54 1386.57C1117.54 1384.47 1118.36 1382.7 1119.99 1381.26C1121.62 1379.82 1123.83 1379.1 1126.63 1379.1C1128.96 1379.1 1130.88 1379.62 1132.37 1380.65C1133.89 1381.68 1134.91 1383.06 1135.43 1384.77L1131.52 1386.08C1131.14 1385.21 1130.5 1384.51 1129.6 1384C1128.73 1383.45 1127.63 1383.18 1126.3 1383.18C1124.94 1383.18 1123.87 1383.48 1123.08 1384.08C1122.32 1384.68 1121.94 1385.52 1121.94 1386.61C1121.94 1387.34 1122.24 1387.99 1122.84 1388.56C1123.44 1389.14 1124.06 1389.56 1124.71 1389.83C1125.36 1390.1 1126.36 1390.47 1127.69 1390.93C1128.5 1391.23 1129.1 1391.46 1129.48 1391.62C1129.89 1391.76 1130.47 1392.01 1131.23 1392.36C1131.99 1392.71 1132.58 1393.04 1132.98 1393.34C1133.39 1393.61 1133.87 1393.99 1134.41 1394.48C1134.95 1394.97 1135.36 1395.47 1135.63 1395.99C1135.93 1396.48 1136.17 1397.09 1136.36 1397.83C1136.58 1398.53 1136.69 1399.29 1136.69 1400.11C1136.69 1402.78 1135.78 1404.87 1133.96 1406.39C1132.14 1407.89 1129.81 1408.64 1126.95 1408.64Z" fill="white"/>
<path d="M1153.13 1408.15L1143.35 1379.59H1147.91L1154.39 1399.5C1154.8 1400.75 1155.1 1401.84 1155.29 1402.76C1155.48 1401.84 1155.78 1400.75 1156.18 1399.5L1162.58 1379.59H1167.1L1157.36 1408.15H1153.13Z" fill="white"/>
<path d="M1175.71 1407.93V1379.37H1193.39V1383.37H1179.95V1391.2H1188.62V1395.2H1179.95V1403.93H1194.29V1407.93H1175.71Z" fill="white"/>
<path d="M1205.16 1408.15V1379.59H1209.4V1404.07H1223.33V1408.15H1205.16Z" fill="white"/>
<path d="M1239.64 1383.67V1408.15H1235.4V1383.67H1227.34V1379.59H1247.71V1383.67H1239.64Z" fill="white"/>
<path d="M1256.42 1408.15V1379.59H1274.1V1383.59H1260.66V1391.42H1269.34V1395.42H1260.66V1404.15H1275V1408.15H1256.42Z" fill="white"/>
</g>
<g opacity="0.4" filter="url(#filter7_dddd_101_328)">
<path fill-rule="evenodd" clip-rule="evenodd" d="M783.857 967H796.847H812.571L774.286 1032.46L736 967H766.082L774.286 982.041L783.857 967ZM754.63 972.469H745.401L774.286 1021.69L803 972.469H793.77L774.286 1006.31L754.63 972.469ZM820.194 979.848C819.679 980.157 819.422 980.543 819.422 981.006H819.423C819.423 981.068 819.454 981.191 819.516 981.377L829.102 1012.19C829.382 1013.08 830.177 1013.53 831.486 1013.53C832.796 1013.53 833.622 1013.08 833.965 1012.19L843.457 981.377C843.457 981.315 843.465 981.253 843.48 981.191C843.496 981.13 843.504 981.083 843.504 981.052C843.504 980.62 843.247 980.234 842.732 979.894C842.218 979.554 841.665 979.384 841.072 979.384C840.355 979.384 839.888 979.678 839.67 980.265L831.486 1007.78L823.257 980.265C823.069 979.678 822.586 979.384 821.807 979.384C821.246 979.384 820.708 979.539 820.194 979.848ZM843.872 992.681V1004.73H843.872C843.872 1007.1 844.784 1009.18 846.608 1010.96C848.432 1012.73 850.606 1013.62 853.131 1013.62C855.625 1013.62 857.784 1012.73 859.607 1010.96C861.431 1009.18 862.343 1007.1 862.343 1004.73V992.634C862.343 992.264 862.164 991.947 861.805 991.684C861.447 991.422 860.987 991.291 860.426 991.291C859.896 991.291 859.436 991.43 859.046 991.708C858.657 991.986 858.462 992.294 858.462 992.634V1004.73C858.462 1006.15 857.932 1007.41 856.872 1008.5C855.812 1009.6 854.565 1010.15 853.131 1010.15C851.666 1010.15 850.403 1009.59 849.343 1008.48C848.283 1007.37 847.753 1006.12 847.753 1004.73V992.681C847.753 992.341 847.559 992.025 847.169 991.731C846.779 991.438 846.335 991.291 845.836 991.291C845.306 991.291 844.847 991.43 844.457 991.708C844.067 991.986 843.872 992.311 843.872 992.681ZM865.516 999.769V1004.63L865.516 1004.63C865.516 1007.32 866.482 1009.49 868.415 1011.14C870.348 1012.8 872.842 1013.62 875.897 1013.62C877.985 1013.62 879.739 1013.25 881.157 1012.51C882.576 1011.77 883.285 1011.04 883.285 1010.33C883.285 1009.93 883.129 1009.54 882.817 1009.15C882.506 1008.77 882.132 1008.57 881.695 1008.57C881.415 1008.57 881.041 1008.72 880.573 1009.01C880.105 1009.31 879.49 1009.61 878.726 1009.92C877.962 1010.22 877.066 1010.38 876.037 1010.38C874.073 1010.38 872.476 1009.87 871.244 1008.85C870.013 1007.83 869.397 1006.47 869.397 1004.77V1003.38H879.638C880.293 1003.38 880.815 1003.35 881.204 1003.29C881.594 1003.23 882.015 1003.08 882.467 1002.85C882.919 1002.62 883.254 1002.23 883.472 1001.69C883.691 1001.15 883.8 1000.43 883.8 999.538C883.8 997.098 882.911 995.067 881.134 993.445C879.357 991.824 877.253 991.013 874.822 991.013C872.265 991.013 870.075 991.878 868.252 993.607C866.428 995.337 865.516 997.391 865.516 999.769ZM878.048 1000.79H869.397L869.397 999.121C869.397 997.7 869.927 996.503 870.987 995.53C872.047 994.557 873.31 994.071 874.775 994.071C876.271 994.071 877.534 994.596 878.562 995.646C879.591 996.696 880.106 997.916 880.106 999.306C880.106 999.893 879.965 1000.29 879.685 1000.49C879.404 1000.69 878.859 1000.79 878.048 1000.79ZM886.459 1009.38C885.992 1009.86 885.758 1010.44 885.758 1011.12C885.758 1011.77 885.992 1012.33 886.459 1012.81C886.927 1013.29 887.504 1013.53 888.189 1013.53C888.844 1013.53 889.405 1013.29 889.873 1012.81C890.34 1012.33 890.574 1011.77 890.574 1011.12C890.574 1010.44 890.34 1009.86 889.873 1009.38C889.405 1008.9 888.844 1008.66 888.189 1008.66C887.504 1008.66 886.927 1008.9 886.459 1009.38ZM889.68 1020.97C889.368 1021.29 889.212 1021.7 889.212 1022.19C889.212 1023.3 889.883 1023.86 891.223 1023.86C893.374 1023.86 894.979 1023.07 896.039 1021.5C897.099 1019.92 897.629 1017.79 897.629 1015.1V992.634C897.629 992.233 897.442 991.909 897.068 991.662C896.694 991.414 896.226 991.291 895.665 991.291C895.104 991.291 894.644 991.414 894.286 991.662C893.927 991.909 893.748 992.233 893.748 992.634V1015.1C893.748 1016.9 893.561 1018.24 893.187 1019.14C892.813 1020.03 892.018 1020.48 890.802 1020.48C890.366 1020.48 889.992 1020.64 889.68 1020.97ZM893.935 981.515C893.467 981.948 893.234 982.457 893.234 983.044C893.234 983.631 893.475 984.148 893.958 984.596C894.442 985.044 895.011 985.268 895.665 985.268C896.32 985.268 896.881 985.044 897.349 984.596C897.816 984.148 898.05 983.631 898.05 983.044C898.05 982.457 897.816 981.948 897.349 981.515C896.881 981.083 896.32 980.867 895.665 980.867C894.979 980.867 894.403 981.083 893.935 981.515ZM900.92 1008.92C900.655 1009.31 900.522 1009.7 900.522 1010.1L900.522 1010.1C900.522 1010.93 901.271 1011.73 902.767 1012.49C904.263 1013.24 906.071 1013.62 908.191 1013.62C910.654 1013.62 912.571 1013.07 913.943 1011.95C915.314 1010.84 916 1009.33 916 1007.41C916 1005.87 915.61 1004.61 914.831 1003.64C914.052 1002.66 913.101 1001.98 911.979 1001.58C910.856 1001.17 909.726 1000.83 908.588 1000.56C907.451 1000.28 906.492 999.892 905.713 999.398C904.933 998.904 904.544 998.225 904.544 997.36C904.544 996.526 904.894 995.777 905.596 995.113C906.297 994.449 907.365 994.117 908.799 994.117C909.859 994.117 910.926 994.341 912.002 994.788C913.077 995.236 913.677 995.46 913.802 995.46C914.239 995.46 914.605 995.229 914.901 994.765C915.197 994.302 915.345 993.885 915.345 993.514C915.345 992.866 914.66 992.287 913.288 991.777C911.916 991.267 910.404 991.013 908.752 991.013C906.165 991.013 904.24 991.654 902.977 992.935C901.715 994.217 901.083 995.738 901.083 997.499C901.083 998.92 901.473 1000.06 902.252 1000.93C903.032 1001.79 903.983 1002.41 905.105 1002.78C906.227 1003.15 907.349 1003.49 908.472 1003.8C909.594 1004.11 910.545 1004.56 911.324 1005.17C912.103 1005.77 912.493 1006.58 912.493 1007.6C912.493 1008.43 912.142 1009.13 911.441 1009.68C910.74 1010.24 909.61 1010.52 908.051 1010.52C906.866 1010.52 905.838 1010.34 904.965 1009.98C904.092 1009.63 903.422 1009.27 902.954 1008.9C902.486 1008.53 902.128 1008.34 901.879 1008.34C901.504 1008.34 901.185 1008.53 900.92 1008.92Z" fill="white"/>
</g>
<defs>
<filter id="filter0_dddd_101_328" x="377" y="385" width="306.048" height="360" filterUnits="userSpaceOnUse" color-interpolation-filters="sRGB">
<feFlood flood-opacity="0" result="BackgroundImageFix"/>
<feColorMatrix in="SourceAlpha" type="matrix" values="0 0 0 0 0 0 0 0 0 0 0 0 0 0 0 0 0 0 127 0" result="hardAlpha"/>
<feOffset dy="-164"/>
<feGaussianBlur stdDeviation="45.5"/>
<feComposite in2="hardAlpha" operator="out"/>
<feColorMatrix type="matrix" values="0 0 0 0 1 0 0 0 0 1 0 0 0 0 1 0 0 0 0.31 0"/>
<feBlend mode="normal" in2="BackgroundImageFix" result="effect1_dropShadow_101_328"/>
<feColorMatrix in="SourceAlpha" type="matrix" values="0 0 0 0 0 0 0 0 0 0 0 0 0 0 0 0 0 0 127 0" result="hardAlpha"/>
<feOffset dy="-91"/>
<feGaussianBlur stdDeviation="35"/>
<feComposite in2="hardAlpha" operator="out"/>
<feColorMatrix type="matrix" values="0 0 0 0 1 0 0 0 0 1 0 0 0 0 1 0 0 0 0.51 0"/>
<feBlend mode="normal" in2="effect1_dropShadow_101_328" result="effect2_dropShadow_101_328"/>
<feColorMatrix in="SourceAlpha" type="matrix" values="0 0 0 0 0 0 0 0 0 0 0 0 0 0 0 0 0 0 127 0" result="hardAlpha"/>
<feOffset dy="-35"/>
<feGaussianBlur stdDeviation="20.5"/>
<feComposite in2="hardAlpha" operator="out"/>
<feColorMatrix type="matrix" values="0 0 0 0 1 0 0 0 0 1 0 0 0 0 1 0 0 0 0.41 0"/>
<feBlend mode="normal" in2="effect2_dropShadow_101_328" result="effect3_dropShadow_101_328"/>
<feColorMatrix in="SourceAlpha" type="matrix" values="0 0 0 0 0 0 0 0 0 0 0 0 0 0 0 0 0 0 127 0" result="hardAlpha"/>
<feOffset/>
<feGaussianBlur stdDeviation="15"/>
<feComposite in2="hardAlpha" operator="out"/>
<feColorMatrix type="matrix" values="0 0 0 0 1 0 0 0 0 1 0 0 0 0 1 0 0 0 0.58 0"/>
<feBlend mode="normal" in2="effect3_dropShadow_101_328" result="effect4_dropShadow_101_328"/>
<feBlend mode="normal" in="SourceGraphic" in2="effect4_dropShadow_101_328" result="shape"/>
</filter>
<filter id="filter1_dddd_101_328" x="1028" y="0" width="306.048" height="360" filterUnits="userSpaceOnUse" color-interpolation-filters="sRGB">
<feFlood flood-opacity="0" result="BackgroundImageFix"/>
<feColorMatrix in="SourceAlpha" type="matrix" values="0 0 0 0 0 0 0 0 0 0 0 0 0 0 0 0 0 0 127 0" result="hardAlpha"/>
<feOffset dy="-164"/>
<feGaussianBlur stdDeviation="45.5"/>
<feComposite in2="hardAlpha" operator="out"/>
<feColorMatrix type="matrix" values="0 0 0 0 1 0 0 0 0 1 0 0 0 0 1 0 0 0 0.31 0"/>
<feBlend mode="normal" in2="BackgroundImageFix" result="effect1_dropShadow_101_328"/>
<feColorMatrix in="SourceAlpha" type="matrix" values="0 0 0 0 0 0 0 0 0 0 0 0 0 0 0 0 0 0 127 0" result="hardAlpha"/>
<feOffset dy="-91"/>
<feGaussianBlur stdDeviation="35"/>
<feComposite in2="hardAlpha" operator="out"/>
<feColorMatrix type="matrix" values="0 0 0 0 1 0 0 0 0 1 0 0 0 0 1 0 0 0 0.51 0"/>
<feBlend mode="normal" in2="effect1_dropShadow_101_328" result="effect2_dropShadow_101_328"/>
<feColorMatrix in="SourceAlpha" type="matrix" values="0 0 0 0 0 0 0 0 0 0 0 0 0 0 0 0 0 0 127 0" result="hardAlpha"/>
<feOffset dy="-35"/>
<feGaussianBlur stdDeviation="20.5"/>
<feComposite in2="hardAlpha" operator="out"/>
<feColorMatrix type="matrix" values="0 0 0 0 1 0 0 0 0 1 0 0 0 0 1 0 0 0 0.41 0"/>
<feBlend mode="normal" in2="effect2_dropShadow_101_328" result="effect3_dropShadow_101_328"/>
<feColorMatrix in="SourceAlpha" type="matrix" values="0 0 0 0 0 0 0 0 0 0 0 0 0 0 0 0 0 0 127 0" result="hardAlpha"/>
<feOffset/>
<feGaussianBlur stdDeviation="15"/>
<feComposite in2="hardAlpha" operator="out"/>
<feColorMatrix type="matrix" values="0 0 0 0 1 0 0 0 0 1 0 0 0 0 1 0 0 0 0.58 0"/>
<feBlend mode="normal" in2="effect3_dropShadow_101_328" result="effect4_dropShadow_101_328"/>
<feBlend mode="normal" in="SourceGraphic" in2="effect4_dropShadow_101_328" result="shape"/>
</filter>
<filter id="filter2_dddd_101_328" x="966" y="472" width="382.03" height="340.359" filterUnits="userSpaceOnUse" color-interpolation-filters="sRGB">
<feFlood flood-opacity="0" result="BackgroundImageFix"/>
<feColorMatrix in="SourceAlpha" type="matrix" values="0 0 0 0 0 0 0 0 0 0 0 0 0 0 0 0 0 0 127 0" result="hardAlpha"/>
<feOffset dy="-164"/>
<feGaussianBlur stdDeviation="45.5"/>
<feComposite in2="hardAlpha" operator="out"/>
<feColorMatrix type="matrix" values="0 0 0 0 1 0 0 0 0 1 0 0 0 0 1 0 0 0 0.31 0"/>
<feBlend mode="normal" in2="BackgroundImageFix" result="effect1_dropShadow_101_328"/>
<feColorMatrix in="SourceAlpha" type="matrix" values="0 0 0 0 0 0 0 0 0 0 0 0 0 0 0 0 0 0 127 0" result="hardAlpha"/>
<feOffset dy="-91"/>
<feGaussianBlur stdDeviation="35"/>
<feComposite in2="hardAlpha" operator="out"/>
<feColorMatrix type="matrix" values="0 0 0 0 1 0 0 0 0 1 0 0 0 0 1 0 0 0 0.51 0"/>
<feBlend mode="normal" in2="effect1_dropShadow_101_328" result="effect2_dropShadow_101_328"/>
<feColorMatrix in="SourceAlpha" type="matrix" values="0 0 0 0 0 0 0 0 0 0 0 0 0 0 0 0 0 0 127 0" result="hardAlpha"/>
<feOffset dy="-35"/>
<feGaussianBlur stdDeviation="20.5"/>
<feComposite in2="hardAlpha" operator="out"/>
<feColorMatrix type="matrix" values="0 0 0 0 1 0 0 0 0 1 0 0 0 0 1 0 0 0 0.41 0"/>
<feBlend mode="normal" in2="effect2_dropShadow_101_328" result="effect3_dropShadow_101_328"/>
<feColorMatrix in="SourceAlpha" type="matrix" values="0 0 0 0 0 0 0 0 0 0 0 0 0 0 0 0 0 0 127 0" result="hardAlpha"/>
<feOffset/>
<feGaussianBlur stdDeviation="15"/>
<feComposite in2="hardAlpha" operator="out"/>
<feColorMatrix type="matrix" values="0 0 0 0 1 0 0 0 0 1 0 0 0 0 1 0 0 0 0.58 0"/>
<feBlend mode="normal" in2="effect3_dropShadow_101_328" result="effect4_dropShadow_101_328"/>
<feBlend mode="normal" in="SourceGraphic" in2="effect4_dropShadow_101_328" result="shape"/>
</filter>
<filter id="filter3_dddd_101_328" x="13" y="257" width="382.03" height="340.359" filterUnits="userSpaceOnUse" color-interpolation-filters="sRGB">
<feFlood flood-opacity="0" result="BackgroundImageFix"/>
<feColorMatrix in="SourceAlpha" type="matrix" values="0 0 0 0 0 0 0 0 0 0 0 0 0 0 0 0 0 0 127 0" result="hardAlpha"/>
<feOffset dy="-164"/>
<feGaussianBlur stdDeviation="45.5"/>
<feComposite in2="hardAlpha" operator="out"/>
<feColorMatrix type="matrix" values="0 0 0 0 1 0 0 0 0 1 0 0 0 0 1 0 0 0 0.31 0"/>
<feBlend mode="normal" in2="BackgroundImageFix" result="effect1_dropShadow_101_328"/>
<feColorMatrix in="SourceAlpha" type="matrix" values="0 0 0 0 0 0 0 0 0 0 0 0 0 0 0 0 0 0 127 0" result="hardAlpha"/>
<feOffset dy="-91"/>
<feGaussianBlur stdDeviation="35"/>
<feComposite in2="hardAlpha" operator="out"/>
<feColorMatrix type="matrix" values="0 0 0 0 1 0 0 0 0 1 0 0 0 0 1 0 0 0 0.51 0"/>
<feBlend mode="normal" in2="effect1_dropShadow_101_328" result="effect2_dropShadow_101_328"/>
<feColorMatrix in="SourceAlpha" type="matrix" values="0 0 0 0 0 0 0 0 0 0 0 0 0 0 0 0 0 0 127 0" result="hardAlpha"/>
<feOffset dy="-35"/>
<feGaussianBlur stdDeviation="20.5"/>
<feComposite in2="hardAlpha" operator="out"/>
<feColorMatrix type="matrix" values="0 0 0 0 1 0 0 0 0 1 0 0 0 0 1 0 0 0 0.41 0"/>
<feBlend mode="normal" in2="effect2_dropShadow_101_328" result="effect3_dropShadow_101_328"/>
<feColorMatrix in="SourceAlpha" type="matrix" values="0 0 0 0 0 0 0 0 0 0 0 0 0 0 0 0 0 0 127 0" result="hardAlpha"/>
<feOffset/>
<feGaussianBlur stdDeviation="15"/>
<feComposite in2="hardAlpha" operator="out"/>
<feColorMatrix type="matrix" values="0 0 0 0 1 0 0 0 0 1 0 0 0 0 1 0 0 0 0.58 0"/>
<feBlend mode="normal" in2="effect3_dropShadow_101_328" result="effect4_dropShadow_101_328"/>
<feBlend mode="normal" in="SourceGraphic" in2="effect4_dropShadow_101_328" result="shape"/>
</filter>
<filter id="filter4_dddd_101_328" x="339" y="951" width="382.03" height="340.359" filterUnits="userSpaceOnUse" color-interpolation-filters="sRGB">
<feFlood flood-opacity="0" result="BackgroundImageFix"/>
<feColorMatrix in="SourceAlpha" type="matrix" values="0 0 0 0 0 0 0 0 0 0 0 0 0 0 0 0 0 0 127 0" result="hardAlpha"/>
<feOffset dy="-164"/>
<feGaussianBlur stdDeviation="45.5"/>
<feComposite in2="hardAlpha" operator="out"/>
<feColorMatrix type="matrix" values="0 0 0 0 1 0 0 0 0 1 0 0 0 0 1 0 0 0 0.31 0"/>
<feBlend mode="normal" in2="BackgroundImageFix" result="effect1_dropShadow_101_328"/>
<feColorMatrix in="SourceAlpha" type="matrix" values="0 0 0 0 0 0 0 0 0 0 0 0 0 0 0 0 0 0 127 0" result="hardAlpha"/>
<feOffset dy="-91"/>
<feGaussianBlur stdDeviation="35"/>
<feComposite in2="hardAlpha" operator="out"/>
<feColorMatrix type="matrix" values="0 0 0 0 1 0 0 0 0 1 0 0 0 0 1 0 0 0 0.51 0"/>
<feBlend mode="normal" in2="effect1_dropShadow_101_328" result="effect2_dropShadow_101_328"/>
<feColorMatrix in="SourceAlpha" type="matrix" values="0 0 0 0 0 0 0 0 0 0 0 0 0 0 0 0 0 0 127 0" result="hardAlpha"/>
<feOffset dy="-35"/>
<feGaussianBlur stdDeviation="20.5"/>
<feComposite in2="hardAlpha" operator="out"/>
<feColorMatrix type="matrix" values="0 0 0 0 1 0 0 0 0 1 0 0 0 0 1 0 0 0 0.41 0"/>
<feBlend mode="normal" in2="effect2_dropShadow_101_328" result="effect3_dropShadow_101_328"/>
<feColorMatrix in="SourceAlpha" type="matrix" values="0 0 0 0 0 0 0 0 0 0 0 0 0 0 0 0 0 0 127 0" result="hardAlpha"/>
<feOffset/>
<feGaussianBlur stdDeviation="15"/>
<feComposite in2="hardAlpha" operator="out"/>
<feColorMatrix type="matrix" values="0 0 0 0 1 0 0 0 0 1 0 0 0 0 1 0 0 0 0.58 0"/>
<feBlend mode="normal" in2="effect3_dropShadow_101_328" result="effect4_dropShadow_101_328"/>
<feBlend mode="normal" in="SourceGraphic" in2="effect4_dropShadow_101_328" result="shape"/>
</filter>
<filter id="filter5_dddd_101_328" x="0" y="670" width="402" height="338.737" filterUnits="userSpaceOnUse" color-interpolation-filters="sRGB">
<feFlood flood-opacity="0" result="BackgroundImageFix"/>
<feColorMatrix in="SourceAlpha" type="matrix" values="0 0 0 0 0 0 0 0 0 0 0 0 0 0 0 0 0 0 127 0" result="hardAlpha"/>
<feOffset dy="-164"/>
<feGaussianBlur stdDeviation="45.5"/>
<feComposite in2="hardAlpha" operator="out"/>
<feColorMatrix type="matrix" values="0 0 0 0 1 0 0 0 0 1 0 0 0 0 1 0 0 0 0.31 0"/>
<feBlend mode="normal" in2="BackgroundImageFix" result="effect1_dropShadow_101_328"/>
<feColorMatrix in="SourceAlpha" type="matrix" values="0 0 0 0 0 0 0 0 0 0 0 0 0 0 0 0 0 0 127 0" result="hardAlpha"/>
<feOffset dy="-91"/>
<feGaussianBlur stdDeviation="35"/>
<feComposite in2="hardAlpha" operator="out"/>
<feColorMatrix type="matrix" values="0 0 0 0 1 0 0 0 0 1 0 0 0 0 1 0 0 0 0.51 0"/>
<feBlend mode="normal" in2="effect1_dropShadow_101_328" result="effect2_dropShadow_101_328"/>
<feColorMatrix in="SourceAlpha" type="matrix" values="0 0 0 0 0 0 0 0 0 0 0 0 0 0 0 0 0 0 127 0" result="hardAlpha"/>
<feOffset dy="-35"/>
<feGaussianBlur stdDeviation="20.5"/>
<feComposite in2="hardAlpha" operator="out"/>
<feColorMatrix type="matrix" values="0 0 0 0 1 0 0 0 0 1 0 0 0 0 1 0 0 0 0.41 0"/>
<feBlend mode="normal" in2="effect2_dropShadow_101_328" result="effect3_dropShadow_101_328"/>
<feColorMatrix in="SourceAlpha" type="matrix" values="0 0 0 0 0 0 0 0 0 0 0 0 0 0 0 0 0 0 127 0" result="hardAlpha"/>
<feOffset/>
<feGaussianBlur stdDeviation="15"/>
<feComposite in2="hardAlpha" operator="out"/>
<feColorMatrix type="matrix" values="0 0 0 0 1 0 0 0 0 1 0 0 0 0 1 0 0 0 0.58 0"/>
<feBlend mode="normal" in2="effect3_dropShadow_101_328" result="effect4_dropShadow_101_328"/>
<feBlend mode="normal" in="SourceGraphic" in2="effect4_dropShadow_101_328" result="shape"/>
</filter>
<filter id="filter6_dddd_101_328" x="964" y="1112" width="402" height="338.737" filterUnits="userSpaceOnUse" color-interpolation-filters="sRGB">
<feFlood flood-opacity="0" result="BackgroundImageFix"/>
<feColorMatrix in="SourceAlpha" type="matrix" values="0 0 0 0 0 0 0 0 0 0 0 0 0 0 0 0 0 0 127 0" result="hardAlpha"/>
<feOffset dy="-164"/>
<feGaussianBlur stdDeviation="45.5"/>
<feComposite in2="hardAlpha" operator="out"/>
<feColorMatrix type="matrix" values="0 0 0 0 1 0 0 0 0 1 0 0 0 0 1 0 0 0 0.31 0"/>
<feBlend mode="normal" in2="BackgroundImageFix" result="effect1_dropShadow_101_328"/>
<feColorMatrix in="SourceAlpha" type="matrix" values="0 0 0 0 0 0 0 0 0 0 0 0 0 0 0 0 0 0 127 0" result="hardAlpha"/>
<feOffset dy="-91"/>
<feGaussianBlur stdDeviation="35"/>
<feComposite in2="hardAlpha" operator="out"/>
<feColorMatrix type="matrix" values="0 0 0 0 1 0 0 0 0 1 0 0 0 0 1 0 0 0 0.51 0"/>
<feBlend mode="normal" in2="effect1_dropShadow_101_328" result="effect2_dropShadow_101_328"/>
<feColorMatrix in="SourceAlpha" type="matrix" values="0 0 0 0 0 0 0 0 0 0 0 0 0 0 0 0 0 0 127 0" result="hardAlpha"/>
<feOffset dy="-35"/>
<feGaussianBlur stdDeviation="20.5"/>
<feComposite in2="hardAlpha" operator="out"/>
<feColorMatrix type="matrix" values="0 0 0 0 1 0 0 0 0 1 0 0 0 0 1 0 0 0 0.41 0"/>
<feBlend mode="normal" in2="effect2_dropShadow_101_328" result="effect3_dropShadow_101_328"/>
<feColorMatrix in="SourceAlpha" type="matrix" values="0 0 0 0 0 0 0 0 0 0 0 0 0 0 0 0 0 0 127 0" result="hardAlpha"/>
<feOffset/>
<feGaussianBlur stdDeviation="15"/>
<feComposite in2="hardAlpha" operator="out"/>
<feColorMatrix type="matrix" values="0 0 0 0 1 0 0 0 0 1 0 0 0 0 1 0 0 0 0.58 0"/>
<feBlend mode="normal" in2="effect3_dropShadow_101_328" result="effect4_dropShadow_101_328"/>
<feBlend mode="normal" in="SourceGraphic" in2="effect4_dropShadow_101_328" result="shape"/>
</filter>
<filter id="filter7_dddd_101_328" x="645" y="712" width="362" height="350.462" filterUnits="userSpaceOnUse" color-interpolation-filters="sRGB">
<feFlood flood-opacity="0" result="BackgroundImageFix"/>
<feColorMatrix in="SourceAlpha" type="matrix" values="0 0 0 0 0 0 0 0 0 0 0 0 0 0 0 0 0 0 127 0" result="hardAlpha"/>
<feOffset dy="-164"/>
<feGaussianBlur stdDeviation="45.5"/>
<feComposite in2="hardAlpha" operator="out"/>
<feColorMatrix type="matrix" values="0 0 0 0 1 0 0 0 0 1 0 0 0 0 1 0 0 0 0.31 0"/>
<feBlend mode="normal" in2="BackgroundImageFix" result="effect1_dropShadow_101_328"/>
<feColorMatrix in="SourceAlpha" type="matrix" values="0 0 0 0 0 0 0 0 0 0 0 0 0 0 0 0 0 0 127 0" result="hardAlpha"/>
<feOffset dy="-91"/>
<feGaussianBlur stdDeviation="35"/>
<feComposite in2="hardAlpha" operator="out"/>
<feColorMatrix type="matrix" values="0 0 0 0 1 0 0 0 0 1 0 0 0 0 1 0 0 0 0.51 0"/>
<feBlend mode="normal" in2="effect1_dropShadow_101_328" result="effect2_dropShadow_101_328"/>
<feColorMatrix in="SourceAlpha" type="matrix" values="0 0 0 0 0 0 0 0 0 0 0 0 0 0 0 0 0 0 127 0" result="hardAlpha"/>
<feOffset dy="-35"/>
<feGaussianBlur stdDeviation="20.5"/>
<feComposite in2="hardAlpha" operator="out"/>
<feColorMatrix type="matrix" values="0 0 0 0 1 0 0 0 0 1 0 0 0 0 1 0 0 0 0.41 0"/>
<feBlend mode="normal" in2="effect2_dropShadow_101_328" result="effect3_dropShadow_101_328"/>
<feColorMatrix in="SourceAlpha" type="matrix" values="0 0 0 0 0 0 0 0 0 0 0 0 0 0 0 0 0 0 127 0" result="hardAlpha"/>
<feOffset/>
<feGaussianBlur stdDeviation="15"/>
<feComposite in2="hardAlpha" operator="out"/>
<feColorMatrix type="matrix" values="0 0 0 0 1 0 0 0 0 1 0 0 0 0 1 0 0 0 0.58 0"/>
<feBlend mode="normal" in2="effect3_dropShadow_101_328" result="effect4_dropShadow_101_328"/>
<feBlend mode="normal" in="SourceGraphic" in2="effect4_dropShadow_101_328" result="shape"/>
</filter>
</defs>
</svg>
