
<svg width="140px" height="36px" viewBox="0 0 140 36" version="1.1" xmlns="http://www.w3.org/2000/svg" xmlns:xlink="http://www.w3.org/1999/xlink">
    <g id="Page-1" stroke="none" stroke-width="1" fill="none" fill-rule="evenodd">
        <g id="Global-Style" transform="translate(-512.000000, -363.000000)" fill="#FFFFFF">
            <g id="Group-13" transform="translate(124.000000, 124.000000)">
                <g id="Group">
                    <g id="Group-5" transform="translate(313.000000, 201.000000)">
                        <g id="Group-2">
                            <path d="M110.539308,56.740901 L107.883635,54.0795049 C107.67311,53.8685264 107.554839,53.5823783 107.554839,53.2840097 L107.554839,50.0281125 C107.554839,47.0192368 107.242226,45.9281458 106.655205,44.8281458 C106.068183,43.7281458 105.206753,42.8648593 104.109119,42.2765729 C103.011485,41.6882864 101.92274,41.375 98.920335,41.375 L94.6259009,41.375 C94.501904,41.375 94.4013847,41.2742641 94.4013847,41.15 C94.4013847,41.0903263 94.425039,41.0330967 94.467144,40.990901 L97.1228166,38.3295049 C97.3333414,38.1185264 97.6188741,38 97.916601,38 L99.409909,38 C103.413116,38 104.864775,38.4177153 106.328288,39.2020972 C107.7918,39.9864791 108.940374,41.1375277 109.723069,42.6041943 C110.505764,44.070861 110.922581,45.5256491 110.922581,49.5374834 L110.922581,56.5818019 C110.922581,56.706066 110.822061,56.8068019 110.698065,56.8068019 C110.638519,56.8068019 110.581413,56.7830967 110.539308,56.740901 Z M92.2219827,73.615901 L94.8776554,70.9545049 C95.0881801,70.7435264 95.3737128,70.625 95.6714397,70.625 L98.920335,70.625 C101.92274,70.625 103.011485,70.3117136 104.109119,69.7234271 C105.206753,69.1351407 106.068183,68.2718542 106.655205,67.1718542 C107.242226,66.0718542 107.554839,64.9807632 107.554839,61.9718875 L107.554839,57.6681981 C107.554839,57.543934 107.655358,57.4431981 107.779355,57.4431981 C107.8389,57.4431981 107.896007,57.4669033 107.938112,57.509099 L110.593784,60.1704951 C110.804309,60.3814736 110.922581,60.6676217 110.922581,60.9659903 L110.922581,62.4625166 C110.922581,66.4743509 110.505764,67.929139 109.723069,69.3958057 C108.940374,70.8624723 107.7918,72.0135209 106.328288,72.7979028 C104.864775,73.5822847 103.413116,74 99.409909,74 L92.3807396,74 C92.2567427,74 92.1562234,73.8992641 92.1562234,73.775 C92.1562234,73.7153263 92.1798777,73.6580967 92.2219827,73.615901 Z M75.383273,55.259099 L78.0389457,57.9204951 C78.2494704,58.1314736 78.3677419,58.4176217 78.3677419,58.7159903 L78.3677419,61.9718875 C78.3677419,64.9807632 78.6803546,66.0718542 79.2673759,67.1718542 C79.8543972,68.2718542 80.7158272,69.1351407 81.8134616,69.7234271 C82.911096,70.3117136 83.9998406,70.625 87.0022456,70.625 L91.2966798,70.625 C91.4206766,70.625 91.5211959,70.7257359 91.5211959,70.85 C91.5211959,70.9096737 91.4975416,70.9669033 91.4554367,71.009099 L88.799764,73.6704951 C88.5892393,73.8814736 88.3037065,74 88.0059796,74 L86.5126716,74 C82.5094649,74 81.0578054,73.5822847 79.5942928,72.7979028 C78.1307803,72.0135209 76.9822071,70.8624723 76.199512,69.3958057 C75.4168169,67.929139 75,66.4743509 75,62.4625166 L75,55.4181981 C75,55.293934 75.1005193,55.1931981 75.2245161,55.1931981 C75.2840615,55.1931981 75.3411681,55.2169033 75.383273,55.259099 Z M91.0449253,41.0454951 C90.8344006,41.2564736 90.5488678,41.375 90.2511409,41.375 L87.0022456,41.375 C83.9998406,41.375 82.911096,41.6882864 81.8134616,42.2765729 C80.7158272,42.8648593 79.8543972,43.7281458 79.2673759,44.8281458 C78.6803546,45.9281458 78.3677419,47.0192368 78.3677419,50.0281125 L78.3677419,54.3318019 C78.3677419,54.456066 78.2672226,54.5568019 78.1432258,54.5568019 C78.0836804,54.5568019 78.0265739,54.5330967 77.9844689,54.490901 L75.3287963,51.8295049 C75.1182715,51.6185264 75,51.3323783 75,51.0340097 L75,49.5374834 C75,45.5256491 75.4168169,44.070861 76.199512,42.6041943 C76.9822071,41.1375277 78.1307803,39.9864791 79.5942928,39.2020972 C81.0578054,38.4177153 82.5094649,38 86.5126716,38 L93.5418411,38 C93.6658379,38 93.7663572,38.1007359 93.7663572,38.225 C93.7663572,38.2846737 93.7427029,38.3419033 93.700598,38.384099 L91.0449253,41.0454951 Z M104.930038,51.1363887 L101.308803,47.6680357 C101.069344,47.4280596 100.78925,47.2536234 100.490717,47.144727 C100.243884,47.0511905 99.9762942,47 99.6967742,47 L89.0104854,47 C88.8864886,47 88.7859693,46.8992641 88.7859693,46.775 C88.7859693,46.7152935 88.8096495,46.6580352 88.8517953,46.615834 L91.5099708,43.9541703 C91.7204683,43.7433965 92.0058579,43.625 92.3034212,43.625 L100.819355,43.625 C103.299292,43.625 105.309677,45.6397186 105.309677,48.125 L105.309677,50.9737293 C105.309677,51.0979934 105.209158,51.1987293 105.085161,51.1987293 C105.027375,51.1987293 104.971814,51.1764004 104.930038,51.1363887 L104.930038,51.1363887 Z M97.8144423,67.9973838 L101.275336,64.3683445 C101.514796,64.1283684 101.688858,63.8476711 101.79752,63.5484953 C101.890855,63.3011296 101.941935,63.0329634 101.941935,62.752841 L101.941935,52.0435214 C101.941935,51.9192573 102.042455,51.8185214 102.166452,51.8185214 C102.22603,51.8185214 102.283165,51.8422527 102.325275,51.8844893 L104.981215,54.5483936 C105.191535,54.7593448 105.309677,55.0453495 105.309677,55.343554 L105.309677,63.877841 C105.309677,66.3631224 103.299292,68.377841 100.819355,68.377841 L97.9767518,68.377841 C97.852755,68.377841 97.7522357,68.277105 97.7522357,68.152841 C97.7522357,68.0949302 97.7745165,68.0392493 97.8144423,67.9973838 Z M80.9925422,60.8636113 L84.6137772,64.3319643 C84.8532371,64.5719404 85.1333308,64.7463766 85.4318632,64.855273 C85.6786969,64.9488095 85.9462865,65 86.2258065,65 L96.9120952,65 C97.0360921,65 97.1366114,65.1007359 97.1366114,65.225 C97.1366114,65.2847065 97.1129311,65.3419648 97.0707853,65.384166 L94.4126098,68.0458297 C94.2021123,68.2566035 93.9167227,68.375 93.6191595,68.375 L85.1032258,68.375 C82.6232891,68.375 80.6129032,66.3602814 80.6129032,63.875 L80.6129032,61.0262707 C80.6129032,60.9020066 80.7134225,60.8012707 80.8374194,60.8012707 C80.8952056,60.8012707 80.9507668,60.8235996 80.9925422,60.8636113 Z M88.1081384,44.0054572 L84.6472442,47.6344965 C84.4077842,47.8744726 84.2337231,48.1551699 84.1250609,48.4543457 C84.0317255,48.7017113 83.9806452,48.9698776 83.9806452,49.25 L83.9806452,59.9593196 C83.9806452,60.0835836 83.8801259,60.1843196 83.756129,60.1843196 C83.6965509,60.1843196 83.6394157,60.1605883 83.5973054,60.1183516 L80.9413656,57.4544474 C80.7310452,57.2434962 80.6129032,56.9574915 80.6129032,56.659287 L80.6129032,48.125 C80.6129032,45.6397186 82.6232891,43.625 85.1032258,43.625 L87.9458288,43.625 C88.0698257,43.625 88.170345,43.7257359 88.170345,43.85 C88.170345,43.9079108 88.1480641,43.9635917 88.1081384,44.0054572 Z M121.213595,48.3838812 L122.082627,48.3838812 C122.675615,48.3838812 123.156328,48.8645935 123.156328,49.4575822 L123.156328,50.4742112 C123.156328,50.5057312 123.18188,50.5312831 123.2134,50.5312831 C123.708026,49.6564113 124.373859,49.0201505 125.210918,48.6224814 C126.047978,48.2248124 126.951608,48.0259809 127.921836,48.0259809 C128.968161,48.0259809 129.909839,48.2198416 130.746898,48.6075689 C131.583958,48.9952962 132.29735,49.5271705 132.887097,50.2032078 C133.476843,50.8792452 133.923903,51.6745712 134.228288,52.58921 C134.532673,53.5038487 134.684864,54.4880647 134.684864,55.5418876 C134.684864,56.5957105 134.523161,57.5799265 134.199752,58.4945652 C133.876342,59.4092039 133.424527,60.20453 132.844293,60.8805673 C132.264058,61.5566047 131.564934,62.088479 130.746898,62.4762063 C129.928863,62.8639335 129.034744,63.0577943 128.064516,63.0577943 C127.417697,63.0577943 126.846983,62.9882032 126.352357,62.8490191 C125.857731,62.7098349 125.420184,62.5308866 125.039702,62.3121686 C124.659221,62.0934507 124.335816,61.8598236 124.069479,61.6112805 C123.803142,61.3627374 123.584368,61.1191687 123.413151,60.8805673 C123.365871,60.8805673 123.327543,60.9188953 123.327543,60.9661753 L123.327543,68.1896307 C123.327543,68.9133277 122.740871,69.5 122.017174,69.5 L121.213595,69.5 C120.489898,69.5 119.903226,68.9133277 119.903226,68.1896307 L119.903226,49.6942505 C119.903226,48.9705536 120.489898,48.3838812 121.213595,48.3838812 Z M131.260546,55.5418876 C131.260546,54.985151 131.170183,54.4483059 130.989454,53.9313362 C130.808725,53.4143665 130.542392,52.957054 130.190447,52.5593849 C129.838501,52.1617159 129.415222,51.8435855 128.920596,51.6049841 C128.425969,51.3663827 127.864767,51.2470838 127.236973,51.2470838 C126.609178,51.2470838 126.047976,51.3663827 125.55335,51.6049841 C125.058724,51.8435855 124.635444,52.1617159 124.283499,52.5593849 C123.931553,52.957054 123.66522,53.4143665 123.484491,53.9313362 C123.303763,54.4483059 123.2134,54.985151 123.2134,55.5418876 C123.2134,56.0986242 123.303763,56.6354693 123.484491,57.152439 C123.66522,57.6694087 123.931553,58.1267212 124.283499,58.5243902 C124.635444,58.9220593 125.058724,59.2401897 125.55335,59.4787911 C126.047976,59.7173925 126.609178,59.8366914 127.236973,59.8366914 C127.864767,59.8366914 128.425969,59.7173925 128.920596,59.4787911 C129.415222,59.2401897 129.838501,58.9220593 130.190447,58.5243902 C130.542392,58.1267212 130.808725,57.6694087 130.989454,57.152439 C131.170183,56.6354693 131.260546,56.0986242 131.260546,55.5418876 Z M139.619302,48.3838812 L140.5999,48.3838812 C141.225832,48.3838812 141.733251,48.8912998 141.733251,49.5172322 L141.733251,50.5935113 C141.733251,50.6250313 141.758803,50.6505832 141.790323,50.6505832 C142.170804,49.8154783 142.712982,49.1692759 143.416873,48.7119565 C144.120764,48.2546372 144.929276,48.0259809 145.842432,48.0259809 C146.051697,48.0259809 146.256202,48.0458641 146.455955,48.085631 C146.812617,48.1566353 147.069473,48.469667 147.069473,48.8333274 L147.069485,50.7969178 C147.069485,51.1918084 146.749363,51.5119304 146.354472,51.5119304 C146.311951,51.5119304 146.269515,51.5081374 146.227667,51.5005965 C145.951818,51.4508879 145.680729,51.4260339 145.414392,51.4260339 C144.615381,51.4260339 143.973327,51.5801284 143.488213,51.8883218 C143.003099,52.1965153 142.632135,52.5494413 142.37531,52.9471103 C142.118485,53.3447793 141.947271,53.7424423 141.861663,54.1401113 C141.776054,54.5377804 141.733251,54.8360276 141.733251,55.0348621 L141.733251,61.3895246 C141.733251,62.1132216 141.146578,62.699894 140.422881,62.699894 L139.619302,62.699894 C138.895605,62.699894 138.308933,62.1132216 138.308933,61.3895246 L138.308933,49.6942505 C138.308933,48.9705536 138.895605,48.3838812 139.619302,48.3838812 Z M151.20491,48.3838812 L152.008489,48.3838812 C152.732186,48.3838812 153.318859,48.9705536 153.318859,49.6942505 L153.318859,61.3895246 C153.318859,62.1132216 152.732186,62.699894 152.008489,62.699894 L151.20491,62.699894 C150.481213,62.699894 149.894541,62.1132216 149.894541,61.3895246 L149.894541,49.6942505 C149.894541,48.9705536 150.481213,48.3838812 151.20491,48.3838812 Z M149.409429,43.5224019 C149.409429,42.9457818 149.613935,42.4437323 150.022953,42.0162381 C150.431971,41.5887439 150.950369,41.375 151.578164,41.375 C152.205958,41.375 152.733869,41.5788023 153.161911,41.986413 C153.589953,42.3940238 153.80397,42.9060149 153.80397,43.5224019 C153.80397,44.1387889 153.589953,44.65078 153.161911,45.0583908 C152.733869,45.4660015 152.205958,45.6698038 151.578164,45.6698038 C150.950369,45.6698038 150.431971,45.4560599 150.022953,45.0285657 C149.613935,44.6010716 149.409429,44.099022 149.409429,43.5224019 Z M164.162641,51.6554747 C163.467851,51.1446139 162.849535,50.8891835 162.307692,50.8891835 C161.851114,50.8891835 161.404055,51.0084824 160.966501,51.2470838 C160.528947,51.4856852 160.310174,51.8734066 160.310174,52.4102598 C160.310174,52.8476957 160.4909,53.1658262 160.852357,53.3646607 C161.213815,53.5634952 161.670386,53.732502 162.222084,53.8716861 C162.773783,54.0108703 163.368276,54.1550231 164.005583,54.304149 C164.64289,54.4532749 165.237384,54.6819311 165.789082,54.9901246 C166.34078,55.2983181 166.797351,55.7208351 167.158809,56.2576882 C167.520266,56.7945414 167.700993,57.530218 167.700993,58.4647402 C167.700993,59.3197286 167.525022,60.0404928 167.173077,60.6270546 C166.821131,61.2136164 166.36456,61.6858413 165.80335,62.0437434 C165.242139,62.4016455 164.609598,62.6601265 163.905707,62.8191941 C163.201816,62.9782617 162.497936,63.0577943 161.794045,63.0577943 C160.728696,63.0577943 159.748971,62.8987291 158.854839,62.5805938 C158.504702,62.4560139 158.084552,62.2056616 157.594389,61.8295371 L157.594405,61.8295155 C157.020275,61.3889591 156.911992,60.5663929 157.352548,59.9922626 C157.390073,59.9433606 157.431002,59.8971674 157.475029,59.854027 L157.830237,59.5060012 C158.320417,59.0256985 159.098143,59.0049619 159.613221,59.4584611 C159.820901,59.6413129 160.000903,59.7823021 160.153226,59.881429 C160.657364,60.2095059 161.270881,60.3735419 161.993797,60.3735419 C162.24111,60.3735419 162.497931,60.3437172 162.764268,60.2840668 C163.030605,60.2244165 163.277914,60.1250007 163.506203,59.9858165 C163.734492,59.8466324 163.919974,59.6726548 164.062655,59.4638786 C164.205336,59.2551023 164.276675,59.0115337 164.276675,58.7331654 C164.276675,58.2360792 164.095949,57.8682409 163.734491,57.6296394 C163.373034,57.391038 162.916463,57.1971773 162.364764,57.0480514 C161.813066,56.8989256 161.218572,56.7597435 160.581266,56.6305011 C159.943959,56.5012586 159.349465,56.2924855 158.797767,56.0041755 C158.246068,55.7158655 157.789497,55.3132316 157.42804,54.7962619 C157.066582,54.2792922 156.885856,53.5634987 156.885856,52.64886 C156.885856,51.853522 157.042802,51.1625825 157.3567,50.5760207 C157.670597,49.9894589 158.084365,49.5072925 158.598015,49.1295069 C159.111665,48.7517213 159.701403,48.4733572 160.367246,48.2944062 C161.033089,48.1154551 161.708433,48.0259809 162.3933,48.0259809 C163.306456,48.0259809 164.210087,48.1900169 165.104218,48.5180938 C165.427985,48.6368912 165.789167,48.8568749 166.187764,49.178045 L166.187747,49.1780663 C166.751263,49.6321203 166.84,50.4570239 166.385946,51.0205401 C166.348186,51.0674022 166.307244,51.1116074 166.263408,51.1528417 L165.836648,51.5542258 C165.376142,51.9874035 164.671999,52.0299921 164.162641,51.6554747 Z M171.950568,48.3838812 L172.582931,48.3838812 C173.306628,48.3838812 173.8933,48.9705536 173.8933,49.6942505 L173.8933,50.6207582 C174.254758,49.9447209 174.74462,49.3432556 175.419975,48.8163441 C176.09533,48.2894327 177.003716,48.0259809 178.145161,48.0259809 C180.294883,48.0259809 181.721667,48.9107812 182.425558,50.6804083 C182.920184,49.7657696 183.538458,49.0947132 184.280397,48.667219 C185.022336,48.2397248 185.906943,48.0259809 186.934243,48.0259809 C187.847399,48.0259809 188.617863,48.1850461 189.245658,48.5031813 C189.873452,48.8213165 190.382339,49.2587459 190.772333,49.8154825 C191.162326,50.3722191 191.442927,51.0233923 191.614144,51.7690217 C191.785361,52.5146511 191.870968,53.314948 191.870968,54.1699364 L191.870968,61.3895246 C191.870968,62.1132216 191.284295,62.699894 190.560598,62.699894 L189.757019,62.699894 C189.033322,62.699894 188.44665,62.1132216 188.44665,61.3895246 L188.44665,54.5874867 C188.44665,54.1500508 188.408603,53.7275339 188.332506,53.3199231 C188.25641,52.9123124 188.123243,52.5544156 187.933002,52.2462222 C187.742762,51.9380287 187.48594,51.6944601 187.162531,51.515509 C186.839122,51.336558 186.420598,51.2470838 185.906948,51.2470838 C185.374274,51.2470838 184.922458,51.3514703 184.551489,51.5602466 C184.180519,51.7690228 183.876138,52.0473869 183.638337,52.3953473 C183.400536,52.7433077 183.229322,53.1409707 183.12469,53.5883484 C183.020057,54.035726 182.967742,54.4880677 182.967742,54.9453871 L182.967742,61.3895246 C182.967742,62.1132216 182.38107,62.699894 181.657373,62.699894 L180.853794,62.699894 C180.130097,62.699894 179.543424,62.1132216 179.543424,61.3895246 L179.543424,54.1699364 C179.543424,53.2751811 179.362698,52.5643584 179.001241,52.037447 C178.639783,51.5105355 178.040534,51.2470838 177.203474,51.2470838 C176.632751,51.2470838 176.152401,51.3464995 175.762407,51.545334 C175.372413,51.7441685 175.049009,52.0125911 174.792184,52.3506098 C174.535359,52.6886284 174.349877,53.0763499 174.235732,53.5137858 C174.121588,53.9512217 174.064516,54.4085342 174.064516,54.885737 L174.064516,61.3895246 C174.064516,62.1132216 173.477844,62.699894 172.754147,62.699894 L171.950568,62.699894 C171.226871,62.699894 170.640199,62.1132216 170.640199,61.3895246 L170.640199,49.6942505 C170.640199,48.9705536 171.226871,48.3838812 171.950568,48.3838812 Z M197.404662,48.3838812 L198.208241,48.3838812 C198.931938,48.3838812 199.51861,48.9705536 199.51861,49.6942505 L199.51861,61.3895246 C199.51861,62.1132216 198.931938,62.699894 198.208241,62.699894 L197.404662,62.699894 C196.680965,62.699894 196.094293,62.1132216 196.094293,61.3895246 L196.094293,49.6942505 C196.094293,48.9705536 196.680965,48.3838812 197.404662,48.3838812 Z M195.609181,43.5224019 C195.609181,42.9457818 195.813687,42.4437323 196.222705,42.0162381 C196.631722,41.5887439 197.150121,41.375 197.777916,41.375 C198.40571,41.375 198.933621,41.5788023 199.361663,41.986413 C199.789704,42.3940238 200.003722,42.9060149 200.003722,43.5224019 C200.003722,44.1387889 199.789704,44.65078 199.361663,45.0583908 C198.933621,45.4660015 198.40571,45.6698038 197.777916,45.6698038 C197.150121,45.6698038 196.631722,45.4560599 196.222705,45.0285657 C195.813687,44.6010716 195.609181,44.099022 195.609181,43.5224019 Z M212.3605,51.8949231 C212.219589,51.7846453 212.095701,51.6979407 211.988834,51.6348091 C211.55128,51.3763243 211.104221,51.2470838 210.647643,51.2470838 C210.019848,51.2470838 209.458646,51.3663827 208.96402,51.6049841 C208.469394,51.8435855 208.046114,52.1617159 207.694169,52.5593849 C207.342223,52.957054 207.07589,53.4143665 206.895161,53.9313362 C206.714433,54.4483059 206.624069,54.985151 206.624069,55.5418876 C206.624069,56.0986242 206.714433,56.6354693 206.895161,57.152439 C207.07589,57.6694087 207.342223,58.1267212 207.694169,58.5243902 C208.046114,58.9220593 208.469394,59.2401897 208.96402,59.4787911 C209.458646,59.7173925 210.019848,59.8366914 210.647643,59.8366914 C211.180317,59.8366914 211.674936,59.7223633 212.131514,59.4937036 C212.223835,59.447468 212.324031,59.3846178 212.432103,59.3051531 L212.432115,59.3051687 C212.977068,58.9044667 213.737463,58.9844084 214.187169,59.4896807 L214.707608,60.0744805 C215.165725,60.5892028 215.119837,61.3778449 214.605115,61.8359619 C214.541978,61.892155 214.473295,61.9417871 214.400124,61.9840933 C213.953058,62.2425782 213.501243,62.4513513 213.044665,62.6104189 C212.588087,62.7694865 212.15054,62.8838146 211.73201,62.9534067 C211.31348,63.0229988 210.952028,63.0577943 210.647643,63.0577943 C209.620342,63.0577943 208.650129,62.8788459 207.736973,62.5209438 C206.823817,62.1630417 206.034329,61.6560213 205.368486,60.9998674 C204.702643,60.3437136 204.174733,59.5533583 203.784739,58.6287778 C203.394746,57.7041974 203.199752,56.6752443 203.199752,55.5418876 C203.199752,54.4085309 203.394746,53.3795778 203.784739,52.4549973 C204.174733,51.5304169 204.702643,50.7400616 205.368486,50.0839077 C206.034329,49.4277539 206.823817,48.9207335 207.736973,48.5628314 C208.650129,48.2049293 209.620342,48.0259809 210.647643,48.0259809 C211.52275,48.0259809 212.402601,48.1999585 213.287221,48.5479189 C213.624332,48.6805196 214.022048,48.9176114 214.480371,49.2591941 C215.060639,49.6916602 215.180455,50.512644 214.747988,51.0929116 C214.715916,51.1359447 214.68123,51.1769668 214.644127,51.2157459 L214.114901,51.768884 C213.649362,52.2554531 212.890811,52.3099486 212.3605,51.8949231 Z" id="prismic_logo"></path>
                        </g>
                    </g>
                </g>
            </g>
        </g>
    </g>
</svg>